<svg width="3394" height="3615" viewBox="0 0 3394 3615" fill="none" xmlns="http://www.w3.org/2000/svg">
<path d="M571.698 3348.07C1217.19 3703.82 2263.49 3703.82 2909.06 3348.07C3554.63 2992.32 3554.48 2416.32 2909.06 2060.89C2263.65 1705.45 1217.27 1705.13 571.698 2060.89C-73.8724 2416.64 -73.7143 2992.64 571.698 3348.07Z" fill="#F5F5F5"/>
<path d="M439.991 3097.39L488.373 3125.29C495.791 3129.08 504 3131.05 512.327 3131.05C520.654 3131.05 528.863 3129.08 536.281 3125.29L1965.53 2300.11C1978.81 2292.2 1978.81 2280.11 1965.53 2272.44L1917.15 2244.45C1909.72 2240.71 1901.52 2238.77 1893.2 2238.77C1884.88 2238.77 1876.67 2240.71 1869.24 2244.45L439.991 3069.72C426.709 3077.31 426.709 3089.72 439.991 3097.39Z" fill="#E0E0E0"/>
<path d="M2539.16 2862.83C2679.01 2935.88 2905.74 2935.95 3045.59 2862.83C3185.44 2789.7 3185.37 2671.35 3045.59 2598.31C2905.82 2525.26 2679.01 2525.26 2539.16 2598.31C2399.31 2671.35 2399.31 2789.78 2539.16 2862.83Z" fill="#E0E0E0"/>
<path d="M2367.45 2715.39C2409.51 2737.37 2477.74 2737.37 2519.79 2715.39C2561.85 2693.41 2561.85 2657.84 2519.79 2635.86C2477.74 2613.88 2409.51 2613.88 2367.45 2635.86C2325.39 2657.84 2325.16 2693.41 2367.45 2715.39Z" fill="#E0E0E0"/>
<path d="M498.967 2725.59C500.864 2655.39 481.337 2537.67 412.005 2420.19C338.009 2294.42 240.296 2210.22 158.236 2235.84C81.7096 2259.55 98.5485 2363.43 213.575 2476.48C294.291 2555.54 375.956 2656.41 413.27 2771.36L477.938 2919.51L498.967 2725.59Z" fill="#38BB3D"/>
<path d="M498.967 2725.59C500.864 2655.39 481.337 2537.67 412.005 2420.19C338.009 2294.42 240.296 2210.22 158.236 2235.84C81.7096 2259.55 98.5485 2363.43 213.575 2476.48C294.291 2555.54 375.956 2656.41 413.27 2771.36L477.938 2919.51L498.967 2725.59Z" fill="#37474F"/>
<path d="M486.397 2777.92C485.386 2777.79 484.437 2777.36 483.675 2776.68C482.914 2776.01 482.374 2775.12 482.128 2774.13C432.876 2573.64 308.205 2363.04 191.755 2283.43C190.671 2282.69 189.921 2281.55 189.669 2280.26C189.417 2278.98 189.684 2277.64 190.411 2276.55C191.164 2275.46 192.315 2274.71 193.615 2274.46C194.916 2274.21 196.264 2274.47 197.368 2275.21C315.478 2355.68 442.046 2569.14 491.772 2771.99C492.083 2773.27 491.875 2774.62 491.193 2775.75C490.512 2776.87 489.413 2777.68 488.136 2778C487.555 2778.05 486.97 2778.03 486.397 2777.92Z" fill="white"/>
<path d="M499.915 2952.95C461.143 2987.3 414.04 3010.88 363.307 3021.34C275.871 3040.55 234.367 3000.62 234.367 3000.62C234.367 3000.62 264.171 2915.72 312.948 2889.55C312.948 2889.55 228.991 2911.92 163.453 2961.49C163.453 2961.49 109.537 2965.52 83.2117 2884.57C83.2117 2884.57 112.146 2833.1 217.607 2799.98C217.607 2799.98 151.437 2787.41 58.8625 2816.98C51.9846 2820.22 15.6189 2715.63 3.52337 2666.77C-8.57218 2617.91 11.429 2617.52 48.9014 2605.03C86.3739 2592.54 216.5 2578.31 241.719 2597.91C266.938 2617.52 283.381 2688.83 283.381 2688.83C283.381 2688.83 303.936 2646.69 296.267 2610.72C322.508 2601.49 350.939 2600.47 377.774 2607.79C421.65 2620.21 420.227 2641.31 422.045 2672.62C424.097 2704.11 421.648 2735.74 414.772 2766.54C414.772 2766.54 442.916 2739.11 438.489 2644.32C438.489 2644.32 499.52 2690.57 525.45 2731.91C551.381 2773.26 552.171 2885.75 499.915 2952.95Z" fill="#455A64"/>
<path d="M500.232 2957.85C499.292 2957.93 498.349 2957.74 497.52 2957.29C496.691 2956.84 496.012 2956.16 495.567 2955.32C415.484 2811.52 140.29 2655.31 44.2372 2642.5C43.588 2642.41 42.9624 2642.2 42.3963 2641.87C41.8303 2641.54 41.3347 2641.1 40.9382 2640.58C40.5417 2640.06 40.2518 2639.46 40.0854 2638.83C39.9189 2638.2 39.8791 2637.54 39.9681 2636.89C40.1643 2635.58 40.8603 2634.41 41.9084 2633.61C42.9564 2632.82 44.274 2632.46 45.5811 2632.62C143.215 2645.5 422.915 2804.41 504.263 2950.5C504.582 2951.07 504.783 2951.7 504.856 2952.35C504.929 2952.99 504.872 2953.65 504.688 2954.28C504.504 2954.9 504.196 2955.49 503.784 2955.99C503.372 2956.5 502.863 2956.91 502.287 2957.22C501.673 2957.62 500.962 2957.84 500.232 2957.85Z" fill="white"/>
<path d="M2933.89 2509.61C2933.89 2509.61 2944.88 2413.24 2992.78 2338.53C3040.69 2263.82 3106.55 2217.1 3167.97 2212.04C3229.4 2206.98 3278.65 2263.66 3213.27 2302.48C3147.89 2341.3 3030.73 2380.9 2977.05 2526.05L2933.89 2509.61Z" fill="#38BB3D"/>
<path opacity="0.1" d="M2933.89 2509.61C2933.89 2509.61 2944.88 2413.24 2992.78 2338.53C3040.69 2263.82 3106.55 2217.1 3167.97 2212.04C3229.4 2206.98 3278.65 2263.66 3213.27 2302.48C3147.89 2341.3 3030.73 2380.9 2977.05 2526.05L2933.89 2509.61Z" fill="black"/>
<path d="M2951.99 2484.55H2951.36C2950.56 2484.21 2949.92 2483.58 2949.58 2482.78C2949.24 2481.98 2949.23 2481.09 2949.54 2480.28C3014.37 2320.66 3137.77 2253.94 3193.98 2241.05C3194.4 2240.95 3194.84 2240.93 3195.27 2241C3195.7 2241.06 3196.11 2241.22 3196.48 2241.44C3196.84 2241.67 3197.16 2241.97 3197.41 2242.33C3197.66 2242.68 3197.84 2243.08 3197.93 2243.5C3198.12 2244.36 3197.96 2245.26 3197.49 2246C3197.01 2246.75 3196.26 2247.27 3195.4 2247.46C3140.07 2260.11 3019.43 2325.56 2955.63 2482.73C2955.32 2483.4 2954.79 2483.95 2954.13 2484.28C2953.47 2484.61 2952.71 2484.7 2951.99 2484.55Z" fill="white"/>
<path d="M3280.15 2486.44C3274.54 2499.01 3260.86 2505.5 3248.13 2510.63C3235.41 2515.77 3221.57 2521.31 3214.69 2533.17C3200.86 2556.88 3223.63 2590.8 3208.69 2614.04C3205.22 2618.71 3200.84 2622.63 3195.81 2625.55C3190.78 2628.47 3185.21 2630.34 3179.44 2631.04C3169.9 2632.42 3160.29 2633.29 3150.66 2633.65C3146.08 2633.56 3141.51 2633.19 3136.98 2632.54C3123.7 2629.58 3109.8 2631.08 3097.45 2636.81C3078.4 2647.48 3072.55 2671.51 3061.01 2690.01C3053.86 2700.95 3044.43 2710.22 3033.36 2717.16C3022.3 2724.11 3009.85 2728.57 2996.9 2730.25C2988.36 2731.36 2972.39 2732.94 2963.69 2728.04L2961.87 2726.93C2960.7 2725.64 2959.59 2724.3 2958.55 2722.9C2958.51 2722.72 2958.51 2722.53 2958.55 2722.35C2955.15 2709.93 2960.69 2697.05 2960.92 2684.16C2960.96 2683.4 2960.96 2682.63 2960.92 2681.87C2960.45 2666.93 2959.98 2652.14 2959.66 2637.28C2958.95 2609.93 2958.63 2582.5 2958.87 2555.06C2958.87 2537.28 2956.89 2517.83 2964.4 2501.07C2972.78 2482.65 2993.5 2482.25 3001.32 2464.15C3004.41 2456.96 3006.14 2449.21 3009.23 2441.94C3013.89 2431.23 3021.43 2422.03 3031 2415.35C3040.57 2408.66 3051.81 2404.76 3063.46 2404.07C3099.67 2402.17 3132.16 2431.5 3168.29 2428.81C3177.6 2427.56 3186.84 2425.79 3195.96 2423.52C3225.29 2418.06 3259.2 2426.44 3275.65 2451.18C3279.2 2456.26 3281.47 2462.12 3282.25 2468.26C3283.04 2474.4 3282.32 2480.64 3280.15 2486.44Z" fill="#38BB3D"/>
<path d="M2955 2665.19C2954.21 2664.97 2953.54 2664.44 2953.14 2663.73C2952.74 2663.02 2952.64 2662.18 2952.86 2661.39C3002.82 2473.79 3200.46 2446.68 3246.71 2450C3247.52 2450.1 3248.25 2450.49 3248.78 2451.11C3249.31 2451.72 3249.58 2452.51 3249.56 2453.32C3249.53 2453.72 3249.42 2454.12 3249.23 2454.48C3249.05 2454.84 3248.8 2455.17 3248.49 2455.43C3248.18 2455.7 3247.82 2455.9 3247.44 2456.02C3247.05 2456.15 3246.64 2456.2 3246.24 2456.16C3201.02 2452.92 3007.73 2479.49 2958.79 2662.97C2958.7 2663.38 2958.53 2663.76 2958.28 2664.09C2958.04 2664.42 2957.73 2664.7 2957.37 2664.91C2957.02 2665.11 2956.62 2665.25 2956.21 2665.29C2955.81 2665.34 2955.39 2665.31 2955 2665.19Z" fill="white"/>
<path d="M3174.61 2570.16C3173.98 2570.07 3173.39 2569.76 3172.95 2569.29C3154.71 2553.5 3133.21 2541.92 3109.98 2535.37C3086.75 2528.83 3062.37 2527.48 3038.56 2531.43C3037.75 2531.54 3036.93 2531.33 3036.28 2530.84C3035.63 2530.35 3035.2 2529.62 3035.08 2528.82C3034.97 2528.01 3035.18 2527.19 3035.67 2526.54C3036.16 2525.89 3036.88 2525.46 3037.69 2525.34C3062.46 2521.22 3087.83 2522.64 3112 2529.47C3136.16 2536.3 3158.51 2548.39 3177.46 2564.87C3177.75 2565.15 3177.99 2565.48 3178.15 2565.86C3178.31 2566.23 3178.39 2566.63 3178.39 2567.04C3178.39 2567.45 3178.31 2567.85 3178.15 2568.22C3177.99 2568.6 3177.75 2568.93 3177.46 2569.21C3177.11 2569.61 3176.67 2569.91 3176.17 2570.08C3175.67 2570.25 3175.13 2570.28 3174.61 2570.16Z" fill="white"/>
<path d="M521.023 3099.05L491.061 3081.73C486.069 3078.49 481.913 3074.12 478.932 3068.97C475.95 3063.81 474.228 3058.03 473.906 3052.09V829.748C474.228 823.805 475.95 818.022 478.932 812.87C481.913 807.718 486.069 803.344 491.061 800.102L1869.72 4.08871C1875.02 1.40072 1880.88 0 1886.83 0C1892.78 0 1898.64 1.40072 1903.95 4.08871L1933.99 21.402C1938.96 24.6613 1943.09 29.042 1946.06 34.1913C1949.02 39.3406 1950.74 45.1145 1951.06 51.0479V2273.39C1950.74 2279.32 1949.02 2285.09 1946.06 2290.24C1943.09 2295.39 1938.96 2299.77 1933.99 2303.03L555.254 3099.05C549.949 3101.74 544.086 3103.14 538.139 3103.14C532.192 3103.14 526.328 3101.74 521.023 3099.05Z" fill="#38BB3D"/>
<path opacity="0.4" d="M1950.91 48.281C1949.72 39.4267 1942.53 36.1854 1933.99 41.1659L555.254 837.18C550.2 840.318 546.036 844.7 543.159 849.908L478.886 812.83C481.808 807.63 485.996 803.252 491.061 800.102L1869.72 4.08871C1875.02 1.40072 1880.88 0 1886.83 0C1892.78 0 1898.64 1.40072 1903.95 4.08871L1933.99 21.402C1938.57 24.4135 1942.44 28.3708 1945.36 33.0074C1948.28 37.644 1950.17 42.8521 1950.91 48.281Z" fill="white"/>
<path opacity="0.15" d="M552.25 3100.47C551.938 3100.67 551.588 3100.8 551.222 3100.87L549.483 3101.5H548.772L545.61 3102.29H545.214C538.39 3103.58 531.343 3103.01 524.818 3100.63C523.511 3100.15 522.243 3099.56 521.023 3098.89L491.061 3081.81C486.097 3078.55 481.966 3074.17 479.001 3069.02C476.035 3063.87 474.317 3058.1 473.985 3052.17V829.749C474.189 823.779 475.902 817.958 478.965 812.831L543.238 849.908C540.238 855.021 538.605 860.82 538.494 866.747V3089.24C538.32 3092.46 539.24 3095.63 541.103 3098.26C542.193 3099.57 543.636 3100.54 545.261 3101.06C546.886 3101.58 548.625 3101.62 550.274 3101.18L552.25 3100.47Z" fill="black"/>
<path d="M1520.45 413.282L1517.92 411.78L1489.46 395.415C1479.12 389.678 1467.9 385.697 1456.25 383.636C1451.35 382.529 1446.93 381.264 1443.05 379.999C1438.75 378.565 1434.55 376.849 1430.48 374.861L1432.62 372.252L1400.2 353.595C1397.56 352.071 1394.71 350.927 1391.74 350.195C1379.65 347.27 1361.55 354.306 1343.44 352.251C1336.88 351.575 1330.55 349.478 1324.88 346.106C1319.22 342.733 1314.35 338.167 1310.63 332.724C1299.64 317.94 1293 292.01 1283.28 270.586L1291.98 258.016L1289.29 256.514L1259.8 239.438C1254.82 236.509 1249.14 234.979 1243.36 235.011C1232.35 235.608 1221.7 239.069 1212.45 245.051C1141.85 285.844 1139.48 382.687 1114.02 446.327C1088.57 509.967 1052.59 529.968 1032.99 557.005C1013.38 584.042 1012.04 604.439 968.638 664.521C925.236 724.604 923.497 738.992 923.497 750.297V839.472L955.593 857.971L1533.41 524.276L1520.45 413.282ZM990.773 756.938C983.263 761.207 977.096 755.436 977.096 743.814C977.012 738.267 978.202 732.774 980.573 727.758C982.944 722.742 986.433 718.336 990.773 714.88C998.284 710.532 1004.37 716.461 1004.37 728.082C1004.45 733.626 1003.25 739.113 1000.87 744.118C998.48 749.123 994.972 753.51 990.615 756.938H990.773ZM1244.46 506.726C1225.49 517.715 1208.89 511.469 1199.96 493.128C1177.58 497.476 1160.9 475.815 1160.9 438.659C1160.9 394.862 1183.99 346.084 1212.45 329.641C1216.09 326.978 1220.3 325.201 1224.74 324.45C1229.19 323.699 1233.75 323.995 1238.07 325.315C1242.38 326.635 1246.32 328.942 1249.59 332.054C1252.85 335.165 1255.35 338.994 1256.88 343.238C1279.33 338.811 1295.93 360.393 1295.93 397.708C1295.93 441.505 1272.92 490.282 1244.46 506.726ZM1436.33 499.532C1428.82 503.88 1422.73 498.03 1422.73 486.488C1422.63 480.956 1423.8 475.475 1426.16 470.47C1428.52 465.465 1432 461.072 1436.33 457.632C1444.24 453.284 1450.01 459.134 1450.01 470.755C1450.11 476.283 1448.93 481.759 1446.56 486.752C1444.18 491.746 1440.68 496.12 1436.33 499.532Z" fill="#455A64"/>
<path opacity="0.5" d="M987.69 772.828L925.868 737.016C924.441 741.486 923.747 746.158 923.813 750.85V840.025L955.91 858.525L988.006 839.946L987.69 772.828Z" fill="#37474F"/>
<path opacity="0.5" d="M1051.88 661.597L1083.98 587.442L1032.99 557.48C1017.97 578.193 1013.62 594.873 993.461 627.84L1051.88 661.597Z" fill="#37474F"/>
<path opacity="0.5" d="M1180.35 513.288L1184.54 491.705C1170.31 485.697 1160.82 466.566 1160.82 438.659C1160.82 401.424 1177.5 360.71 1200.35 339.207L1155.53 313.355C1136.55 356.599 1129.52 407.59 1114.02 446.327C1110.96 454.01 1107.5 461.53 1103.67 468.858L1180.35 513.288Z" fill="#37474F"/>
<path d="M1520.45 413.282L1517.92 411.78C1508.47 407.355 1498.51 404.115 1488.27 402.135C1471.45 399.068 1455.8 391.407 1443.05 379.999C1439.84 377.024 1436.35 374.376 1432.62 372.094C1429.91 370.518 1426.98 369.371 1423.92 368.694C1404.47 364.03 1369.06 385.217 1343.6 352.251L1342.81 351.223C1325.02 327.506 1318.54 273.827 1291.9 258.095L1289.21 256.593C1278.22 251.454 1263.91 252.403 1244.38 263.629C1173.79 304.422 1171.42 401.265 1145.96 464.905C1120.5 528.545 1084.53 548.546 1064.93 575.583C1045.32 602.621 1044.06 623.017 1000.58 683.099C957.095 743.182 955.514 757.57 955.514 768.875V858.841L1533.33 525.146V435.734C1533.75 431.121 1532.74 426.49 1530.44 422.472C1528.13 418.455 1524.64 415.246 1520.45 413.282ZM1022.4 775.437C1014.49 779.785 1008.8 773.935 1008.8 762.313C1008.7 756.772 1009.87 751.281 1012.23 746.264C1014.59 741.248 1018.07 736.839 1022.4 733.379C1030.3 729.031 1035.99 734.96 1035.99 746.581C1036.14 752.095 1035.01 757.568 1032.69 762.573C1030.37 767.578 1026.93 771.981 1022.63 775.437H1022.4ZM1244.23 506.647C1225.25 517.635 1208.65 511.39 1199.72 493.049C1194.7 481.741 1192.29 469.446 1192.68 457.079C1192.68 413.282 1215.77 364.504 1244.23 348.061C1248.07 345.772 1252.26 344.117 1256.64 343.159C1279.09 338.732 1295.69 360.314 1295.69 397.629C1295.93 441.505 1272.92 490.282 1244.46 506.726L1244.23 506.647ZM1468.19 517.952C1460.29 522.3 1454.51 516.45 1454.51 504.908C1454.4 499.367 1455.58 493.875 1457.95 488.867C1460.32 483.859 1463.83 479.472 1468.19 476.052C1476.1 471.704 1481.79 477.554 1481.79 489.175C1481.93 494.688 1480.8 500.159 1478.48 505.163C1476.16 510.168 1472.72 514.571 1468.43 518.031L1468.19 517.952Z" fill="#37474F"/>
<path d="M1295.93 397.708C1295.93 441.505 1272.92 490.282 1244.46 506.726C1225.49 517.715 1208.89 511.469 1199.95 493.128C1204.36 492.208 1208.59 490.551 1212.45 488.227C1240.91 471.783 1263.91 423.006 1263.91 379.209C1264.3 366.842 1261.9 354.546 1256.88 343.238C1279.33 338.811 1295.93 360.789 1295.93 397.708Z" fill="#263238"/>
<path d="M1022.63 775.358C1014.73 779.706 1008.96 773.856 1008.96 762.314C1008.86 756.764 1010.04 751.267 1012.42 746.249C1014.79 741.231 1018.28 736.827 1022.63 733.379C1030.14 729.031 1036.23 734.96 1036.23 746.581C1036.33 752.101 1035.15 757.568 1032.8 762.559C1030.44 767.55 1026.96 771.93 1022.63 775.358Z" fill="#263238"/>
<path d="M1468.35 518.031C1460.44 522.379 1454.75 516.529 1454.75 504.987C1454.65 499.444 1455.82 493.951 1458.18 488.934C1460.53 483.916 1464.02 479.509 1468.35 476.052C1476.26 471.704 1482.03 477.634 1482.03 489.255C1482.13 494.782 1480.95 500.258 1478.57 505.252C1476.2 510.245 1472.7 514.619 1468.35 518.031Z" fill="#263238"/>
<path d="M644.667 1045.02L1844.42 352.33C1847.61 350.73 1851.13 349.897 1854.7 349.897C1858.26 349.897 1861.78 350.73 1864.97 352.33L1876.59 359.05C1879.58 361.002 1882.07 363.629 1883.85 366.719C1885.64 369.808 1886.67 373.274 1886.87 376.837V2207.14C1886.67 2210.7 1885.64 2214.17 1883.85 2217.26C1882.07 2220.35 1879.58 2222.97 1876.59 2224.93L676.842 2917.61C673.653 2919.21 670.133 2920.05 666.565 2920.05C662.997 2920.05 659.478 2919.21 656.288 2917.61L644.667 2910.89C641.679 2908.94 639.193 2906.32 637.408 2903.23C635.623 2900.14 634.589 2896.67 634.389 2893.11V1062.81C634.601 1059.25 635.64 1055.78 637.424 1052.7C639.208 1049.61 641.688 1046.98 644.667 1045.02Z" fill="#F5F5F5"/>
<path d="M1886.48 373.754C1885.21 369.564 1881.26 368.22 1876.59 370.908L676.842 1063.6C673.762 1065.54 671.253 1068.27 669.569 1071.5L637.472 1053C639.134 1049.76 641.648 1047.02 644.746 1045.1L1844.5 352.409C1847.66 350.773 1851.17 349.919 1854.74 349.919C1858.3 349.919 1861.81 350.773 1864.97 352.409L1876.59 359.049C1879.14 360.716 1881.33 362.875 1883.02 365.401C1884.72 367.927 1885.9 370.767 1886.48 373.754Z" fill="#FAFAFA"/>
<path d="M674.392 2918.72C673.165 2919.19 671.894 2919.54 670.597 2919.75H668.621C666.545 2919.99 664.45 2919.99 662.375 2919.75C661.078 2919.54 659.807 2919.19 658.58 2918.72L656.288 2917.61L644.746 2910.97C641.754 2909.03 639.264 2906.4 637.479 2903.31C635.693 2900.22 634.661 2896.75 634.468 2893.19V1062.88C634.557 1059.3 635.594 1055.81 637.472 1052.77L669.569 1071.26C667.746 1074.34 666.713 1077.81 666.565 1081.38V2911.69C666.565 2917.3 669.885 2920.07 674.392 2918.72Z" fill="#E0E0E0"/>
<path d="M1616.58 611.633L1584.96 593.134C1579.93 590.695 1574.38 589.508 1568.79 589.673C1563.2 589.838 1557.74 591.351 1552.86 594.083C1515.55 610.526 1499.42 617.799 1480.13 625.705L1466.22 631.318C1458.7 634.322 1443.61 631.792 1448.27 605.467L1497.84 471.941H1497.13L1465.5 453.758C1463.9 452.812 1462.13 452.193 1460.29 451.94C1459.13 451.851 1457.97 451.851 1456.81 451.94C1436.49 451.466 1430.72 320.549 1430.56 316.517L1429.14 315.727L1397.99 297.544C1392.6 294.487 1386.48 292.931 1380.28 293.038C1369.99 293.307 1359.91 296.016 1350.87 300.943C1302.1 326.558 1252.84 402.451 1240.83 470.597C1232.92 513.604 1189.99 579.774 1165.01 604.123C1140.03 628.472 1138.29 648.868 1138.29 648.868L1118.84 759.072L1112.6 794.331C1108.01 820.657 1080.98 846.113 1080.98 846.113L980.417 922.085C917.172 974.42 899.622 1027.23 887.526 1092.61V1093.08C887.526 1095.38 887.526 1096.96 888.633 1097.59C888.801 1097.69 888.992 1097.74 889.186 1097.74C889.381 1097.74 889.571 1097.69 889.74 1097.59L902.626 1090.24L1595 690.926C1598.29 688.669 1600.56 685.203 1601.32 681.281C1605.27 657.565 1617.13 612.74 1617.13 612.74L1616.58 611.633ZM1416.41 409.329C1408.98 451.229 1378.78 497.951 1348.74 513.683C1328.03 524.513 1312.93 517.794 1307.87 498.741C1304.14 500.206 1300.11 500.707 1296.15 500.195C1292.18 499.684 1288.41 498.177 1285.18 495.816C1275.53 487.911 1363.76 336.835 1370.95 340.155C1374.43 341.948 1377.44 344.511 1379.77 347.649C1382.1 350.787 1383.68 354.416 1384.39 358.259C1408.98 350.749 1423.05 371.698 1416.41 409.329Z" fill="#455A64"/>
<path opacity="0.5" d="M987.69 995.37L937.252 966.199C907.923 1004.7 896.222 1045.25 887.526 1092.29V1092.77C887.526 1095.06 887.526 1096.64 888.633 1097.27C888.801 1097.37 888.992 1097.42 889.186 1097.42C889.381 1097.42 889.571 1097.37 889.74 1097.27L929.268 1065.65L987.69 995.37Z" fill="#37474F"/>
<path opacity="0.5" d="M1109.28 805.952L1180.43 846.982L1212.52 661.596L1148.41 624.598C1143.31 631.934 1139.88 640.3 1138.37 649.105L1118.92 759.309L1112.68 794.568C1111.89 798.457 1110.75 802.267 1109.28 805.952Z" fill="#37474F"/>
<path opacity="0.5" d="M1274.5 382.292C1258.25 409.638 1246.85 439.596 1240.83 470.835C1235.77 493.09 1227.29 514.425 1215.69 534.079L1276.72 569.338L1307 499.295C1303.38 500.585 1299.51 500.978 1295.71 500.441C1291.91 499.904 1288.29 498.453 1285.18 496.211C1280.2 492.259 1300.99 450.359 1323.6 410.989L1274.5 382.292Z" fill="#37474F"/>
<path d="M1617.05 611.87H1616.58C1611.6 609.536 1606.14 608.412 1600.65 608.591C1595.15 608.769 1589.77 610.245 1584.96 612.898C1539.18 633.057 1525.35 639.698 1498 650.45C1490.72 653.375 1476.1 651.003 1479.89 626.259C1479.85 625.706 1479.85 625.151 1479.89 624.598L1486.14 589.339L1503.45 493.287C1503.45 493.287 1507.4 478.187 1497.36 472.495H1496.65C1494.18 471.344 1491.48 470.75 1488.75 470.756C1482.91 470.062 1477.3 468.059 1472.35 464.897C1467.39 461.735 1463.22 457.495 1460.13 452.494C1454.71 444.463 1450.97 435.424 1449.13 425.917C1447.28 416.41 1447.36 406.628 1449.38 397.155C1456.65 355.966 1448.66 327.111 1430.4 316.359L1428.98 315.49C1417.2 309.244 1401.39 310.272 1382.89 319.996C1334.11 345.61 1284.86 421.504 1272.84 489.65C1264.94 532.656 1222.01 598.826 1197.03 623.175C1172.05 647.525 1170.31 667.921 1170.31 667.921L1150.86 778.125L1144.62 813.384C1140.03 839.709 1112.99 865.165 1112.99 865.165L1012.83 940.348C972.678 972.307 943.698 1016.18 930.058 1065.65C930.058 1065.65 892.349 1094.9 889.977 1097.27L902.863 1089.92L1597.21 690.768C1597.21 690.768 1605.12 686.42 1606.93 685.313C1608.75 684.207 1636.66 657.802 1636.66 657.802C1635.32 635.034 1628.68 618.827 1617.05 611.87ZM1416.41 409.329C1408.98 451.229 1378.78 497.951 1348.74 513.683C1328.03 524.514 1312.93 517.794 1307.87 498.741C1305.62 488.028 1305.62 476.963 1307.87 466.249C1315.3 424.35 1345.58 377.628 1375.62 361.975C1378.4 360.48 1381.31 359.237 1384.31 358.259C1408.98 350.749 1423.05 371.699 1416.41 409.329Z" fill="#37474F"/>
<path d="M1416.41 409.329C1408.98 451.228 1378.78 497.95 1348.74 513.683C1328.03 524.513 1312.93 517.794 1307.87 498.741C1310.89 497.779 1313.82 496.563 1316.64 495.104C1346.68 479.293 1376.96 432.65 1384.31 390.751C1386.6 380.04 1386.6 368.969 1384.31 358.259C1408.98 350.748 1423.05 371.698 1416.41 409.329Z" fill="#263238"/>
<path d="M1387.4 359.998C1390.22 359.82 1393.05 360.374 1395.59 361.606C1398.14 362.839 1400.33 364.708 1401.94 367.034C1414.35 384.743 1402.42 429.805 1397.28 444.193C1390.08 464.273 1343.52 511.311 1330.71 511.311C1326.48 510.615 1322.43 509.064 1318.82 506.754C1315.2 504.443 1312.09 501.421 1309.68 497.872C1307.57 487.436 1307.57 476.684 1309.68 466.249C1317.04 424.903 1347 378.734 1376.41 363.477C1378.93 362.052 1381.58 360.861 1384.31 359.919H1387.08M1387.08 357.943H1383.92C1380.91 358.92 1378 360.164 1375.22 361.658C1345.18 377.47 1314.9 424.033 1307.47 465.933C1305.22 476.647 1305.22 487.711 1307.47 498.425C1310.05 502.293 1313.41 505.584 1317.33 508.088C1321.25 510.591 1325.64 512.254 1330.24 512.971C1344.15 512.971 1390.95 465.538 1398.46 444.588C1405.97 423.638 1422.18 357.626 1386.76 357.626L1387.08 357.943Z" fill="#263238"/>
<path d="M889.74 1097.35L1596.97 690.768L1606.78 685.313C1608.52 684.285 1636.5 657.723 1636.5 657.723L929.742 1065.65C929.742 1065.65 886.894 1098.78 889.74 1097.35Z" fill="#263238"/>
<path d="M764.278 1282.26L955.593 1170.16V1392.71L764.278 1504.73V1282.26Z" fill="#FAFAFA"/>
<path d="M772.184 1286.77V1491.29L947.688 1388.51V1184L772.184 1286.77ZM764.278 1512.63C762.896 1512.62 761.538 1512.27 760.325 1511.6C759.119 1510.91 758.118 1509.91 757.424 1508.7C756.73 1507.49 756.367 1506.12 756.372 1504.73V1282.26C756.359 1280.88 756.71 1279.51 757.389 1278.31C758.069 1277.1 759.055 1276.09 760.246 1275.39L951.561 1163.36C952.763 1162.67 954.127 1162.3 955.514 1162.3C956.902 1162.3 958.265 1162.67 959.467 1163.36C960.662 1164.05 961.655 1165.04 962.349 1166.24C963.042 1167.43 963.412 1168.78 963.42 1170.16V1392.7C963.412 1394.08 963.042 1395.44 962.349 1396.63C961.655 1397.82 960.662 1398.81 959.467 1399.5L768.152 1511.53C766.978 1512.22 765.643 1512.6 764.278 1512.63Z" fill="#455A64"/>
<path d="M1051.88 1122.41V1138.22C1051.88 1147 1058.05 1150.56 1065.56 1146.13L1744.65 754.171C1748.64 751.569 1751.96 748.068 1754.35 743.949C1756.74 739.83 1758.13 735.208 1758.41 730.454V714.248C1758.41 705.551 1752.24 701.994 1744.65 706.342L1065.56 1098.46C1061.55 1101.08 1058.21 1104.62 1055.84 1108.79C1053.46 1112.95 1052.1 1117.62 1051.88 1122.41Z" fill="#E0E0E0"/>
<path d="M1051.88 1219.57V1235.38C1051.88 1244.08 1058.05 1247.64 1065.56 1243.29L1744.65 851.251C1748.65 848.659 1751.98 845.16 1754.37 841.039C1756.76 836.918 1758.14 832.291 1758.41 827.534V811.723C1758.41 802.948 1752.24 799.391 1744.65 803.818L1065.56 1195.86C1061.58 1198.46 1058.26 1201.96 1055.89 1206.08C1053.51 1210.2 1052.14 1214.82 1051.88 1219.57Z" fill="#E0E0E0"/>
<path d="M1051.88 1316.18V1331.99C1051.88 1340.69 1058.05 1344.24 1065.56 1339.9L1744.65 947.858C1748.65 945.27 1751.98 941.772 1754.37 937.65C1756.77 933.528 1758.15 928.899 1758.41 924.141V908.33C1758.41 899.634 1752.24 896.076 1744.65 900.424L1065.56 1292.46C1061.59 1295.08 1058.29 1298.58 1055.91 1302.7C1053.54 1306.82 1052.16 1311.43 1051.88 1316.18Z" fill="#E0E0E0"/>
<path d="M863.098 1395.95L818.589 1353.18L837.8 1312.54L863.098 1336.97L968.479 1113.88L987.69 1132.3L863.098 1395.95Z" fill="#38BB3D"/>
<path d="M764.278 1690.11L955.593 1578.09V1800.55L764.278 1912.58V1690.11Z" fill="#FAFAFA"/>
<path d="M772.184 1694.62V1898.82L947.688 1796.05V1591.85L772.184 1694.62ZM764.278 1920.48C762.893 1920.49 761.53 1920.14 760.325 1919.45C759.119 1918.76 758.118 1917.76 757.424 1916.55C756.73 1915.34 756.367 1913.97 756.372 1912.58V1690.11C756.373 1688.74 756.73 1687.39 757.409 1686.2C758.088 1685.01 759.066 1684.01 760.246 1683.31L951.561 1571.29C952.762 1570.58 954.129 1570.2 955.524 1570.19C956.92 1570.18 958.293 1570.53 959.506 1571.22C960.718 1571.91 961.726 1572.91 962.428 1574.12C963.129 1575.33 963.499 1576.7 963.499 1578.09V1800.55C963.504 1801.95 963.142 1803.32 962.448 1804.53C961.754 1805.73 960.753 1806.74 959.546 1807.43L768.231 1919.45C767.026 1920.14 765.663 1920.49 764.278 1920.48Z" fill="#455A64"/>
<path d="M1051.88 1530.26V1546.07C1051.88 1554.77 1058.05 1558.33 1065.56 1553.98L1744.65 1161.94C1748.65 1159.35 1751.98 1155.86 1754.37 1151.73C1756.77 1147.61 1758.15 1142.98 1758.41 1138.22V1122.41C1758.41 1113.64 1752.24 1110.16 1744.65 1114.51L1065.56 1506.55C1061.59 1509.16 1058.29 1512.67 1055.91 1516.78C1053.54 1520.9 1052.16 1525.52 1051.88 1530.26Z" fill="#E0E0E0"/>
<path d="M1051.88 1627.5V1643.31C1051.88 1652.09 1058.05 1655.57 1065.56 1651.22L1744.65 1259.18C1748.65 1256.59 1751.98 1253.09 1754.37 1248.97C1756.77 1244.85 1758.15 1240.22 1758.41 1235.46V1219.65C1758.41 1210.96 1752.24 1207.4 1744.65 1211.75L1065.56 1603.86C1061.59 1606.46 1058.28 1609.95 1055.91 1614.05C1053.53 1618.16 1052.15 1622.77 1051.88 1627.5Z" fill="#E0E0E0"/>
<path d="M1051.88 1724.11V1739.92C1051.88 1748.62 1058.05 1752.17 1065.56 1747.82L1744.65 1355.79C1748.65 1353.19 1751.98 1349.7 1754.37 1345.57C1756.76 1341.45 1758.14 1336.83 1758.41 1332.07V1316.26C1758.41 1307.48 1752.24 1303.93 1744.65 1308.35L1065.56 1700.39C1061.59 1703 1058.28 1706.51 1055.9 1710.62C1053.53 1714.74 1052.15 1719.36 1051.88 1724.11Z" fill="#E0E0E0"/>
<path d="M863.098 1803.87L818.589 1761.03L837.8 1720.47L863.098 1744.82L968.479 1521.72L987.69 1540.22L863.098 1803.87Z" fill="#38BB3D"/>
<path d="M764.278 2098.04L955.593 1985.94V2208.48L764.278 2320.5V2098.04Z" fill="#FAFAFA"/>
<path d="M772.184 2102.55V2306.75L947.688 2203.98V1999.77L772.184 2102.55ZM764.278 2328.41C762.893 2328.42 761.53 2328.07 760.325 2327.38C759.119 2326.69 758.118 2325.68 757.424 2324.48C756.73 2323.27 756.367 2321.9 756.372 2320.5V2098.04C756.359 2096.66 756.71 2095.29 757.389 2094.08C758.069 2092.88 759.055 2091.87 760.246 2091.16L951.561 1979.14C952.767 1978.43 954.142 1978.04 955.544 1978.04C956.946 1978.03 958.325 1978.39 959.54 1979.09C960.755 1979.79 961.762 1980.8 962.458 1982.02C963.153 1983.24 963.513 1984.62 963.499 1986.02V2208.48C963.491 2209.86 963.121 2211.22 962.428 2212.41C961.734 2213.6 960.741 2214.59 959.546 2215.28L768.231 2327.3C767.034 2328.01 765.67 2328.4 764.278 2328.41Z" fill="#455A64"/>
<path d="M1051.88 1938.19V1954C1051.88 1962.7 1058.05 1966.26 1065.56 1961.91L1744.65 1570.34C1748.65 1567.75 1751.98 1564.25 1754.37 1560.13C1756.76 1556.01 1758.14 1551.38 1758.41 1546.63V1530.82C1758.41 1522.04 1752.24 1518.48 1744.65 1522.91L1065.56 1914.95C1061.65 1917.51 1058.38 1920.94 1056.01 1924.97C1053.64 1929 1052.22 1933.53 1051.88 1938.19Z" fill="#E0E0E0"/>
<path d="M1051.88 2035.35V2051.16C1051.88 2059.86 1058.05 2063.42 1065.56 2059.07L1744.65 1667.03C1748.65 1664.44 1751.98 1660.94 1754.37 1656.82C1756.77 1652.7 1758.15 1648.07 1758.41 1643.31V1627.5C1758.41 1618.73 1752.24 1615.25 1744.65 1619.6L1065.56 2011.63C1061.59 2014.24 1058.28 2017.75 1055.9 2021.87C1053.53 2025.99 1052.15 2030.6 1051.88 2035.35Z" fill="#E0E0E0"/>
<path d="M1051.88 2132.04V2147.85C1051.88 2156.62 1058.05 2160.1 1065.56 2155.75L1744.65 1763.71C1748.66 1761.13 1751.99 1757.63 1754.38 1753.51C1756.77 1749.39 1758.15 1744.76 1758.41 1740V1723.79C1758.41 1715.09 1752.24 1711.54 1744.65 1715.89L1065.56 2108C1061.54 2110.63 1058.2 2114.19 1055.82 2118.37C1053.44 2122.55 1052.09 2127.23 1051.88 2132.04Z" fill="#E0E0E0"/>
<path d="M764.278 2505.89L955.593 2393.87V2616.41L764.278 2728.43V2505.89Z" fill="#FAFAFA"/>
<path d="M772.184 2510.48V2714.6L947.688 2611.83V2407.7L772.184 2510.48ZM764.278 2736.34C762.181 2736.34 760.171 2735.51 758.688 2734.02C757.205 2732.54 756.373 2730.53 756.373 2728.43V2505.89C756.373 2504.52 756.73 2503.17 757.409 2501.98C758.088 2500.79 759.066 2499.79 760.246 2499.09L951.562 2387.07C952.763 2386.38 954.127 2386.01 955.514 2386.01C956.902 2386.01 958.265 2386.38 959.467 2387.07C960.674 2387.77 961.675 2388.77 962.369 2389.98C963.063 2391.19 963.425 2392.56 963.42 2393.95V2616.49C963.412 2617.87 963.042 2619.22 962.349 2620.42C961.656 2621.61 960.662 2622.6 959.467 2623.29L768.152 2735.31C766.97 2735.98 765.636 2736.34 764.278 2736.34Z" fill="#455A64"/>
<path d="M1051.88 2346.12V2361.93C1051.88 2370.71 1058.05 2374.18 1065.56 2369.84L1744.65 1977.8C1748.65 1975.21 1751.98 1971.71 1754.37 1967.59C1756.77 1963.47 1758.15 1958.84 1758.41 1954.08V1938.27C1758.41 1929.57 1752.24 1926.02 1744.65 1930.36L1065.56 2322.48C1061.59 2325.07 1058.28 2328.56 1055.91 2332.67C1053.53 2336.78 1052.15 2341.38 1051.88 2346.12Z" fill="#E0E0E0"/>
<path d="M1051.88 2443.28V2459.09C1051.88 2467.87 1058.05 2471.42 1065.56 2467L1744.65 2075.04C1748.64 2072.44 1751.96 2068.93 1754.35 2064.82C1756.74 2060.7 1758.13 2056.07 1758.41 2051.32V2035.11C1758.41 2026.42 1752.24 2022.86 1744.65 2027.21L1065.56 2419.33C1061.55 2421.95 1058.21 2425.49 1055.84 2429.65C1053.46 2433.82 1052.1 2438.49 1051.88 2443.28Z" fill="#E0E0E0"/>
<path d="M1051.88 2539.88V2555.7C1051.88 2564.39 1058.05 2567.95 1065.56 2563.6L1744.65 2171.56C1748.65 2168.98 1751.98 2165.48 1754.37 2161.36C1756.77 2157.23 1758.15 2152.6 1758.41 2147.85V2132.04C1758.41 2123.26 1752.24 2119.78 1744.65 2124.13L1065.56 2516.17C1061.59 2518.78 1058.29 2522.29 1055.91 2526.41C1053.54 2530.52 1052.16 2535.14 1051.88 2539.88Z" fill="#E0E0E0"/>
<path d="M2845.38 1186.42C2852.97 1139.66 2821.21 1095.6 2774.45 1088.01C2727.69 1080.42 2683.63 1112.17 2676.04 1158.93C2668.45 1205.69 2700.2 1249.75 2746.96 1257.34C2793.72 1264.93 2837.78 1233.18 2845.38 1186.42Z" fill="#263238"/>
<path d="M2658.46 1440.3L2536.08 1582.6L2371.72 1511.45L2368.56 1600.46C2368.56 1600.46 2502.95 1663.31 2523.75 1667.58C2544.54 1671.85 2564.46 1676.44 2582.48 1662.6C2603.51 1646.79 2679.01 1559.36 2679.01 1559.36L2658.46 1440.3Z" fill="#FFA8A7"/>
<path d="M2769.53 1367.33C2720.83 1364.17 2682.57 1401.16 2653.95 1434.37C2625.33 1467.57 2589.2 1519.75 2589.2 1519.75C2589.2 1519.75 2608.89 1577.22 2660.75 1594.61L2750.16 1488.44L2769.53 1367.33Z" fill="#E0E0E0"/>
<path d="M2965.91 2623.45H2905.51V2726.85H2965.91V2623.45Z" fill="#FFA8A7"/>
<path d="M2756.49 2654.52L2696.09 2656.57L2693.08 2547.16L2753.4 2545.1L2756.49 2654.52Z" fill="#FFA8A7"/>
<path d="M2961.87 1803.8C2961.87 1861.51 2969.38 2211.01 2969.38 2211.01C2970.73 2227.61 2986.3 2258.45 2982.98 2321.69C2978.4 2408.65 2970.89 2633.41 2970.89 2633.41C2970.89 2633.41 2942.58 2661.47 2902.58 2633.41C2902.58 2633.41 2847.88 2322.01 2837.12 2236.23C2827.64 2161.29 2811.59 1957.88 2811.59 1957.88L2778.15 2240.26C2778.15 2240.26 2787.95 2296.55 2790.16 2336.24C2792.38 2375.92 2757.44 2577.67 2757.44 2577.67C2747.64 2583.79 2736.42 2587.24 2724.87 2587.67C2713.33 2588.1 2701.88 2585.5 2691.66 2580.12C2691.66 2580.12 2665.65 2272.68 2659.41 2236.78C2653.16 2200.89 2679.41 1803.56 2679.41 1803.56L2961.87 1803.8Z" fill="#37474F"/>
<path d="M2903.85 1386.62C2916.72 1388.87 2928.64 1394.88 2938.09 1403.9C2947.55 1412.92 2954.12 1424.54 2956.97 1437.29C2960.25 1452.36 2961.89 1467.73 2961.87 1483.15V1803.8C2919.58 1849.89 2772.14 1871.39 2679.41 1803.8C2679.41 1803.8 2681.23 1520.62 2688.18 1474.05C2700.2 1393.26 2738.86 1364.4 2777.75 1367.41L2870.64 1380.61L2903.85 1386.62Z" fill="#F0F0F0"/>
<path d="M2908.75 1233.57C2908.75 1233.57 2894.83 1298.79 2889.3 1309.54C2885.59 1316.15 2879.47 1321.07 2872.22 1323.29L2873.17 1277.44L2908.75 1233.57Z" fill="#263238"/>
<path d="M2891.28 1140.04C2896.13 1139.46 2901.06 1140 2905.68 1141.61C2910.3 1143.23 2914.49 1145.88 2917.92 1149.37C2929.38 1161.07 2922.98 1197.67 2908.75 1233.57L2882.58 1236.57L2891.28 1140.04Z" fill="#263238"/>
<path d="M2874.75 1236.57C2879.97 1239.73 2887.48 1229.61 2893.96 1222.89C2900.45 1216.17 2921.56 1207.08 2932.07 1229.06C2942.58 1251.04 2922.74 1281.55 2906.14 1286.77C2877.44 1295.78 2873.17 1277.44 2873.17 1277.44L2870.64 1380.61C2864.32 1394.48 2854.65 1406.56 2842.51 1415.78C2830.37 1424.99 2816.13 1431.05 2801.07 1433.42C2750.24 1440.38 2760.68 1398.48 2777.36 1378.08V1346.46C2764.58 1348.5 2751.62 1349.17 2738.7 1348.43C2717.59 1345.19 2704.31 1328.51 2697.99 1305.74C2687.71 1269.06 2683.76 1239.5 2692.45 1167.4C2702.02 1088.34 2793.96 1087.55 2843.53 1118.78C2893.1 1150 2874.75 1236.57 2874.75 1236.57Z" fill="#FFA8A7"/>
<path d="M2874.75 1245.42C2877.36 1245.42 2887.4 1228.82 2893.96 1222.89C2902.98 1214.59 2891.28 1140.04 2891.28 1140.04C2893.67 1133.6 2894.13 1126.59 2892.58 1119.88C2891.03 1113.18 2887.56 1107.08 2882.58 1102.33C2870.17 1088.66 2849.46 1087.15 2814.04 1081.62C2795.54 1078.7 2767.4 1073.71 2748.82 1070C2726.68 1065.89 2708.34 1061.54 2692.77 1075.14C2686.66 1080.46 2682.34 1087.54 2680.39 1095.4C2678.44 1103.26 2678.95 1111.53 2681.86 1119.09C2683.48 1122.53 2685.61 1125.7 2688.18 1128.5C2692.39 1133.5 2697.84 1137.29 2703.99 1139.49C2703.99 1139.49 2713.64 1148.03 2747.24 1152.14C2778.24 1154.45 2809.4 1153.84 2840.29 1150.32C2850.01 1149.05 2852.06 1158.23 2857.36 1184.23C2862.03 1206.69 2865.9 1245.27 2874.75 1245.42Z" fill="#263238"/>
<path d="M2891.28 1145.81L2922.9 1128.82C2921.87 1126.73 2920.44 1124.87 2918.69 1123.33C2916.94 1121.8 2914.9 1120.64 2912.69 1119.9C2910.49 1119.17 2908.16 1118.88 2905.84 1119.05C2903.52 1119.22 2901.26 1119.86 2899.18 1120.91C2894.92 1123.26 2891.73 1127.15 2890.26 1131.79C2888.79 1136.42 2889.15 1141.44 2891.28 1145.81Z" fill="#263238"/>
<path d="M2777.83 1346.62C2777.83 1346.62 2824.87 1337.13 2841.08 1328.35C2850.74 1323.31 2858.66 1315.49 2863.84 1305.9C2861.35 1315.51 2856.94 1324.52 2850.88 1332.39C2838.86 1347.8 2777.59 1359.11 2777.59 1359.11L2777.83 1346.62Z" fill="#F28F8F"/>
<path d="M2789.14 1224.79C2789.21 1226.63 2789.83 1228.41 2790.91 1229.91C2791.99 1231.4 2793.49 1232.54 2795.21 1233.2C2796.93 1233.85 2798.81 1233.98 2800.61 1233.57C2802.41 1233.17 2804.05 1232.24 2805.32 1230.91C2806.6 1229.58 2807.46 1227.9 2807.79 1226.09C2808.12 1224.28 2807.91 1222.41 2807.19 1220.71C2806.47 1219.01 2805.27 1217.57 2803.73 1216.55C2802.19 1215.53 2800.39 1214.99 2798.54 1214.99C2797.28 1215.01 2796.03 1215.28 2794.88 1215.78C2793.72 1216.29 2792.67 1217.02 2791.8 1217.93C2790.92 1218.84 2790.24 1219.92 2789.78 1221.09C2789.32 1222.27 2789.11 1223.53 2789.14 1224.79Z" fill="#263238"/>
<path d="M2799.49 1189.22L2819.65 1200.36C2821.04 1197.63 2821.33 1194.47 2820.46 1191.53C2819.59 1188.59 2817.63 1186.09 2814.99 1184.55C2813.67 1183.82 2812.22 1183.36 2810.72 1183.2C2809.22 1183.04 2807.7 1183.18 2806.26 1183.62C2804.81 1184.05 2803.47 1184.77 2802.31 1185.73C2801.15 1186.69 2800.19 1187.88 2799.49 1189.22Z" fill="#263238"/>
<path d="M2782.1 1289.93L2760.52 1297.84C2760.99 1299.28 2761.75 1300.62 2762.74 1301.76C2763.74 1302.91 2764.95 1303.85 2766.31 1304.52C2767.68 1305.19 2769.16 1305.58 2770.68 1305.67C2772.19 1305.76 2773.71 1305.54 2775.14 1305.03C2777.99 1303.85 2780.29 1301.64 2781.57 1298.84C2782.86 1296.04 2783.05 1292.86 2782.1 1289.93Z" fill="#F28F8F"/>
<path d="M2705.02 1197.04L2723.44 1182.89C2722.58 1181.67 2721.48 1180.64 2720.21 1179.86C2718.94 1179.07 2717.53 1178.55 2716.05 1178.32C2714.58 1178.09 2713.07 1178.16 2711.63 1178.53C2710.18 1178.89 2708.82 1179.54 2707.63 1180.44C2705.16 1182.35 2703.52 1185.14 2703.03 1188.22C2702.55 1191.31 2703.26 1194.46 2705.02 1197.04Z" fill="#263238"/>
<path d="M2710.71 1222.5C2710.79 1224.34 2711.41 1226.12 2712.49 1227.61C2713.57 1229.11 2715.06 1230.25 2716.79 1230.9C2718.51 1231.55 2720.39 1231.69 2722.19 1231.28C2723.98 1230.87 2725.62 1229.95 2726.9 1228.62C2728.18 1227.29 2729.03 1225.61 2729.37 1223.8C2729.7 1221.98 2729.49 1220.11 2728.77 1218.42C2728.05 1216.72 2726.84 1215.27 2725.3 1214.26C2723.77 1213.24 2721.96 1212.7 2720.12 1212.69C2718.86 1212.72 2717.61 1212.99 2716.45 1213.49C2715.3 1214 2714.25 1214.72 2713.37 1215.64C2712.5 1216.55 2711.81 1217.62 2711.36 1218.8C2710.9 1219.98 2710.68 1221.23 2710.71 1222.5Z" fill="#263238"/>
<path d="M2758.7 1213.17L2755.62 1269.93L2726.05 1259.81L2758.7 1213.17Z" fill="#F28F8F"/>
<path d="M2905.51 2697.05V2688.35C2899.66 2690.88 2886.3 2742.11 2862.26 2764.01C2843.21 2781.32 2817.28 2801.4 2810.64 2820.77C2804 2840.14 2846.85 2852.39 2864.63 2848.91C2885.35 2845.28 2921.16 2830.73 2930.17 2817.29C2939.18 2803.85 2943.37 2783.85 2950.65 2773.97C2957.92 2764.09 2974.84 2753.02 2978.79 2741.56C2981.01 2735.31 2978.4 2721.48 2975.31 2709.93C2972.23 2698.39 2969.54 2687.56 2965.91 2688.51C2965.91 2689.85 2965.91 2695.15 2965.91 2695.15C2957.28 2701.87 2946.64 2705.46 2935.71 2705.35C2926.85 2705.51 2905.43 2703.77 2905.51 2697.05Z" fill="#263238"/>
<path d="M2695.46 2637.6C2692.29 2637.6 2689.76 2642.18 2682.89 2649.61C2672.53 2660.07 2660.51 2668.73 2647.31 2675.23C2624.7 2686.53 2580.74 2703.93 2560.82 2712.94C2548.41 2718.47 2548.96 2733.49 2561.85 2742.03C2574.74 2750.57 2605.73 2756.74 2642.96 2748.43C2663.28 2743.93 2689.68 2725.19 2706.21 2726.14C2722.73 2727.09 2754.27 2726.93 2766.61 2718.24C2778.94 2709.54 2774.04 2691.51 2770.48 2675.94C2766.68 2658.86 2761.23 2632.78 2755.62 2633.96V2639.34C2748.34 2650.33 2711.42 2655.15 2695.46 2646.69V2637.6Z" fill="#263238"/>
<path d="M2811.59 1958.11C2780.37 1948.37 2751.66 1931.91 2727.47 1909.89C2727.47 1909.89 2743.76 1940.25 2791.98 1968.55L2778.15 2240.5L2811.59 1958.11Z" fill="#263238"/>
<path d="M2555.13 2376.71L2453.47 2673.41C2452.82 2675.3 2451.6 2676.94 2449.98 2678.1C2448.35 2679.26 2446.41 2679.88 2444.41 2679.88C2442.42 2679.88 2440.47 2679.26 2438.85 2678.1C2437.23 2676.94 2436.01 2675.3 2435.36 2673.41L2335.04 2374.34L2555.13 2376.71Z" fill="#FFA8A7"/>
<path d="M2435.36 2673.41C2436.01 2675.3 2437.23 2676.94 2438.85 2678.1C2440.47 2679.26 2442.42 2679.88 2444.41 2679.88C2446.41 2679.88 2448.35 2679.26 2449.98 2678.1C2451.6 2676.94 2452.82 2675.3 2453.47 2673.41L2473.31 2615.46C2464.75 2620.06 2455.1 2622.2 2445.4 2621.66C2435.71 2621.11 2426.35 2617.9 2418.36 2612.38L2413.94 2609.38L2435.36 2673.41Z" fill="#263238"/>
<path d="M2338.91 1051.42V1080.2V1115.22L2335.36 2374.1C2358.6 2400.67 2393.07 2414.19 2428.01 2417.74C2481.21 2423.28 2535.84 2405.81 2555.29 2376.56L2558.85 1118.38V1051.42C2556.24 1095.06 2336.94 1094.9 2338.91 1051.42Z" fill="#38BB3D"/>
<path d="M2338.2 1161.86V1226.69C2337.57 1245.5 2377.73 1257.68 2423.82 1261.87C2485.17 1267.72 2557.42 1251.12 2558.21 1226.21V1178.38V1161.31C2557.34 1186.21 2485.09 1202.89 2423.82 1197.04C2379.55 1192.93 2340.81 1181.23 2338.6 1163.92C2338.32 1163.27 2338.19 1162.57 2338.2 1161.86Z" fill="#EBEBEB"/>
<path d="M2338.36 1178.07C2336.78 1221.71 2556.71 1221.15 2558.29 1177.51V1112.61C2556.71 1156.25 2336.94 1156.8 2338.36 1113.16V1178.07Z" fill="#38BB3D"/>
<path d="M2338.91 1051.42V1115.46C2337.02 1158.3 2549.28 1159.57 2558.85 1118.62C2559.11 1117.83 2559.24 1117 2559.24 1116.17V1051.66C2556.24 1095.06 2336.94 1094.9 2338.91 1051.42Z" fill="#EBEBEB"/>
<path opacity="0.1" d="M2558.53 1118.62V1051.66C2557.34 1071.26 2512.44 1085.89 2462.64 1087.63L2459.55 2419.01L2453.62 2673.49L2555.13 2376.71L2558.53 1118.62Z" fill="black"/>
<path d="M2339.94 779.785L2338.91 1051.66C2338.04 1070.24 2377.57 1082.49 2423.42 1086.92C2484.77 1092.93 2557.34 1076.72 2558.77 1051.9L2559.72 779.153C2559.72 724.92 2449.67 711.244 2383.98 733.854C2359.39 741.68 2341.92 756.78 2339.94 779.785Z" fill="#F28F8F"/>
<path d="M3053.82 1894C3051.89 1921.42 3048.27 1948.69 3042.98 1975.66C3024.88 2045.39 3001.72 2066.34 2970.81 2068.4C2921.56 2071.64 2921.24 2053.22 2943.37 2021.44C2953.08 2007.58 2960.5 1992.26 2965.35 1976.06C2958.1 1982.1 2950.14 1987.22 2941.64 1991.32C2937.86 1993.3 2933.47 1993.79 2929.35 1992.67C2925.23 1991.56 2921.68 1988.93 2919.42 1985.31C2917.84 1981.99 2926.38 1978.67 2935.86 1967.13C2947.88 1952.42 2954.05 1940.72 2970.65 1928.55C2976.16 1923.09 2979.67 1915.93 2980.61 1908.23C2983.14 1898.27 2984.88 1740.08 2975.95 1707.35L2933.89 1555.16C2899.42 1531.45 2862.74 1414.45 2915.15 1389.15C2964.32 1394.68 3000.22 1459.03 3053.89 1657.94C3062.99 1693.35 3059.35 1839.92 3053.82 1894Z" fill="#FFA8A7"/>
<path d="M2903.85 1386.62C2897.14 1392.57 2891.78 1399.87 2888.12 1408.05C2884.45 1416.23 2882.56 1425.09 2882.58 1434.05C2881.16 1467.18 2896.73 1514.93 2906.3 1544.73C2915.86 1574.53 2935.23 1628.77 2935.23 1628.77C2935.23 1628.77 3016.26 1619.44 3034.68 1571.92C3034.68 1571.92 2996.74 1449.15 2960.21 1409.23C2953.19 1401.38 2944.45 1395.25 2934.67 1391.33C2924.9 1387.41 2914.35 1385.8 2903.85 1386.62Z" fill="#E0E0E0"/>
<path d="M2385.24 1416.34C2385.24 1416.34 2404.93 1400.53 2442.48 1406.78C2460.66 1409.78 2453.7 1478.56 2395.04 1497.69C2357.02 1510.18 2349.27 1503.78 2337.02 1535.01C2337.02 1535.01 2314.09 1530.26 2319.62 1495.48C2325.72 1459.46 2341.77 1425.86 2365.95 1398.48C2382.71 1378.71 2383.9 1362.11 2392.12 1367.72C2400.34 1373.34 2395.68 1390.41 2395.68 1390.41L2385.24 1416.34Z" fill="#FFA8A7"/>
</svg>
