<svg width="4406" height="3036" viewBox="0 0 4406 3036" fill="none" xmlns="http://www.w3.org/2000/svg">
<path d="M645.149 2698.91C1505.35 3148.29 2900.09 3148.29 3760.29 2698.91C4620.49 2249.54 4620.49 1520.94 3760.29 1071.46C2900.09 621.986 1505.74 622.084 645.149 1071.46C-215.443 1520.84 -214.656 2249.54 645.149 2698.91Z" fill="#F5F5F5"/>
<path d="M405.363 1961.95L125.745 1800.55V1200.8L405.363 1362.29V1961.95Z" fill="#E0E0E0"/>
<path d="M405.363 1362.29L804.874 1131.65V1731.31L405.363 1961.95V1362.29Z" fill="#EBEBEB"/>
<path d="M804.874 1131.65L405.363 1362.29L125.745 1200.8L525.256 970.157L804.874 1131.65Z" fill="#F5F5F5"/>
<path d="M445.393 1385.31L764.943 1200.8L772.319 1205.03V1427.21L452.671 1611.72L445.295 1607.49L445.393 1385.31Z" fill="#E0E0E0"/>
<path d="M452.671 1389.63L772.319 1205.03V1427.21L452.671 1611.72V1389.63Z" fill="#F5F5F5"/>
<path d="M577.973 1354.92L632.363 1323.54C639.346 1319.41 645.05 1321.28 645.05 1327.67C644.544 1331.59 643.134 1335.33 640.932 1338.61C638.73 1341.89 635.796 1344.61 632.363 1346.55L577.973 1377.93C570.892 1382.06 565.187 1380.19 565.187 1373.8C565.697 1369.87 567.119 1366.12 569.339 1362.84C571.56 1359.56 574.516 1356.85 577.973 1354.92Z" fill="#E0E0E0"/>
<path d="M438.017 1666.4L757.566 1481.89V1704.07L764.943 1708.3L445.295 1892.81L438.017 1888.58V1666.4Z" fill="#E0E0E0"/>
<path d="M445.295 1670.63L764.943 1486.12V1708.3L445.295 1892.81V1670.63Z" fill="#F5F5F5"/>
<path d="M570.597 1636.01L625.478 1604.73C632.559 1600.6 638.264 1602.47 638.264 1608.86C637.754 1612.79 636.332 1616.54 634.112 1619.82C631.892 1623.1 628.935 1625.82 625.478 1627.75L571.089 1659.12C564.007 1663.25 558.303 1661.38 558.303 1654.99C558.745 1651.09 560.085 1647.35 562.218 1644.05C564.351 1640.76 567.219 1638.01 570.597 1636.01Z" fill="#E0E0E0"/>
<path d="M405.363 1327.67L125.745 1166.18V566.516L405.363 727.913V1327.67Z" fill="#E0E0E0"/>
<path d="M405.363 727.913L804.874 497.274V1097.03L405.363 1327.67V727.913Z" fill="#EBEBEB"/>
<path d="M804.874 497.275L405.363 727.913L125.745 566.515L525.256 335.877L804.874 497.275Z" fill="#F5F5F5"/>
<path d="M445.295 751.026L764.943 566.516L772.319 570.745V792.925L452.671 977.436L445.295 973.108V751.026Z" fill="#E0E0E0"/>
<path d="M577.973 720.536L632.264 689.161C639.346 685.129 645.05 686.997 645.05 693.39C644.526 697.313 643.098 701.06 640.879 704.337C638.66 707.613 635.711 710.331 632.264 712.274L577.973 743.649C570.892 747.681 565.187 745.911 565.187 739.518C565.705 735.581 567.129 731.817 569.348 728.523C571.566 725.23 574.519 722.495 577.973 720.536Z" fill="#E0E0E0"/>
<path d="M438.017 1032.12L757.566 847.609V1069.69L764.943 1073.92L445.295 1258.43L438.017 1254.2V1032.12Z" fill="#E0E0E0"/>
<path d="M445.295 1036.35L764.943 851.839V1073.92L445.295 1258.43V1036.35Z" fill="#F5F5F5"/>
<path d="M570.597 1001.63L625.478 970.256C632.461 966.224 638.264 968.092 638.264 974.485C637.71 978.398 636.271 982.133 634.055 985.406C631.839 988.678 628.906 991.402 625.478 993.369L570.597 1024.45C563.515 1028.48 557.811 1026.61 557.811 1020.32C558.371 1016.43 559.815 1012.73 562.032 1009.49C564.249 1006.25 567.179 1003.56 570.597 1001.63Z" fill="#E0E0E0"/>
<path d="M445.295 751.026L764.943 566.516V788.597L445.295 973.108V751.026Z" fill="#E0E0E0"/>
<path d="M924.767 676.277L749.797 575.269V770.992L924.767 871.902V676.277Z" fill="#E0E0E0"/>
<path d="M565.187 1004.78V727.913L633.74 688.179L645.05 704.899L844.806 589.53V843.282L565.187 1004.78Z" fill="#EBEBEB"/>
<path d="M565.187 1004.78L585.153 762.533L864.772 601.136L844.806 843.282L565.187 1004.78Z" fill="#F5F5F5"/>
<path d="M605.119 860.789L452.671 772.763V968.486L605.119 1056.41V860.789Z" fill="#EBEBEB"/>
<path d="M605.119 843.281L924.767 658.771V880.852L605.119 1065.36V843.281Z" fill="#F5F5F5"/>
<path d="M730.421 808.563L784.712 777.189C791.793 773.156 797.498 775.025 797.498 781.418C796.966 785.338 795.535 789.082 793.317 792.357C791.099 795.633 788.154 798.352 784.712 800.302L730.421 831.676C723.339 835.709 717.635 833.84 717.635 827.545C718.153 823.608 719.577 819.844 721.795 816.551C724.014 813.257 726.967 810.523 730.421 808.563Z" fill="#E0E0E0"/>
<path d="M605.119 843.281L594.497 837.184V1059.27L605.119 1065.36V843.281Z" fill="#E0E0E0"/>
<path d="M594.497 837.183L914.046 652.574L924.767 658.771L605.119 843.281L594.497 837.183Z" fill="#EBEBEB"/>
<path d="M3708.85 1598.63L3429.14 1437.14V837.479L3708.85 998.876V1598.63Z" fill="#E0E0E0"/>
<path d="M3708.85 998.877L4108.37 768.238V1368L3708.85 1598.64V998.877Z" fill="#EBEBEB"/>
<path d="M4108.37 768.237L3708.85 998.876L3429.14 837.478L3828.75 606.741L4108.37 768.237Z" fill="#F5F5F5"/>
<path d="M3748.79 1021.99L4068.43 837.479L4075.81 841.708L4075.71 1063.79L3756.16 1248.3L3748.79 1244.07V1021.99Z" fill="#E0E0E0"/>
<path d="M3756.16 1026.22L4075.81 841.708L4075.71 1063.79L3756.16 1248.3V1026.22Z" fill="#F5F5F5"/>
<path d="M3881.46 991.499L3935.76 960.125C3942.84 956.092 3948.54 957.961 3948.54 964.256C3948.02 968.193 3946.6 971.957 3944.38 975.25C3942.16 978.544 3939.21 981.278 3935.76 983.238L3881.46 1014.61C3874.38 1018.64 3868.68 1016.78 3868.68 1010.48C3869.2 1006.54 3870.62 1002.78 3872.84 999.487C3875.06 996.193 3878.01 993.459 3881.46 991.499Z" fill="#E0E0E0"/>
<path d="M3741.41 1303.08L4061.06 1118.47V1340.65L4068.43 1344.88L3748.79 1529.39L3741.41 1525.17V1303.08Z" fill="#E0E0E0"/>
<path d="M3748.79 1307.31L4068.43 1122.8V1344.88L3748.79 1529.39V1307.31Z" fill="#F5F5F5"/>
<path d="M3874.09 1272.59L3928.48 1241.22C3935.46 1237.19 3941.16 1239.05 3941.16 1245.35C3940.64 1249.27 3939.23 1253.03 3937.03 1256.32C3934.83 1259.61 3931.9 1262.35 3928.48 1264.33L3874.09 1295.71C3867.01 1299.74 3861.3 1297.87 3861.3 1291.48C3861.83 1287.56 3863.26 1283.81 3865.48 1280.54C3867.7 1277.26 3870.65 1274.54 3874.09 1272.59Z" fill="#E0E0E0"/>
<path d="M1048.4 2225.44C1048.4 2225.44 1049.48 2069.45 951.126 1952.51C864.083 1848.94 817.759 1783.24 845.199 1752.95C872.64 1722.66 931.652 1715.38 1011.22 1799.18C1090.79 1882.97 1096.98 2115.09 1085.97 2167.61L1048.4 2225.44Z" fill="#38BB3D"/>
<path opacity="0.2" d="M1048.4 2225.44C1048.4 2225.44 1049.48 2069.45 951.126 1952.51C864.083 1848.94 817.759 1783.24 845.199 1752.95C872.64 1722.66 931.652 1715.38 1011.22 1799.18C1090.79 1882.97 1096.98 2115.09 1085.97 2167.61L1048.4 2225.44Z" fill="black"/>
<path d="M1064.92 2057.75C1063.8 2057.75 1062.71 2057.37 1061.84 2056.68C1060.96 2055.98 1060.35 2055 1060.1 2053.91C1025.68 1892.91 937.356 1803.9 887.688 1765.15C886.66 1764.35 885.989 1763.18 885.823 1761.89C885.657 1760.6 886.01 1759.29 886.803 1758.26C887.617 1757.23 888.806 1756.55 890.113 1756.39C891.419 1756.22 892.739 1756.58 893.786 1757.38C944.438 1796.72 1034.63 1887.79 1069.74 2051.85C1069.88 2052.47 1069.9 2053.12 1069.79 2053.76C1069.68 2054.39 1069.44 2055 1069.09 2055.54C1068.75 2056.08 1068.29 2056.54 1067.76 2056.91C1067.23 2057.27 1066.63 2057.52 1066 2057.65L1064.92 2057.75Z" fill="white"/>
<path d="M1044.66 2283.37L1004.63 2306.48C1000.36 2294.82 993.159 2284.44 983.719 2276.36C974.28 2268.29 962.92 2262.77 950.732 2260.36C906.965 2250.52 861.526 2252.19 830.84 2214.23C800.153 2176.26 837.528 2134.96 830.84 2107.02C824.152 2079.09 819.824 2071.03 764.943 2043.09C710.062 2015.16 688.424 1968.84 729.732 1937.46C771.041 1906.09 837.921 1929.1 878.443 1957.13C914.44 1981.72 948.667 1988.21 988.893 1993.23C1029.12 1998.24 1094.62 2020.57 1084.59 2114.01C1078.02 2171.84 1064.62 2228.69 1044.66 2283.37Z" fill="#38BB3D"/>
<path d="M891.032 2160.62C889.984 2160.62 888.965 2160.28 888.119 2159.66C887.272 2159.04 886.64 2158.18 886.311 2157.18C885.939 2155.93 886.069 2154.58 886.676 2153.43C887.282 2152.27 888.315 2151.39 889.557 2150.99C893.097 2149.9 978.075 2122.96 1014.17 2151.87C1015.07 2152.72 1015.61 2153.87 1015.7 2155.1C1015.79 2156.33 1015.41 2157.54 1014.64 2158.51C1013.88 2159.47 1012.78 2160.11 1011.56 2160.31C1010.34 2160.5 1009.1 2160.23 1008.07 2159.54C976.206 2133.97 893.392 2160.13 892.507 2160.43L891.032 2160.62Z" fill="white"/>
<path d="M1049.09 2275.9C1047.89 2275.9 1046.73 2275.46 1045.84 2274.66C1044.95 2273.86 1044.39 2272.76 1044.27 2271.57C1022.33 2064.44 772.811 1966.18 770.352 1965.2C769.743 1964.97 769.185 1964.62 768.71 1964.17C768.236 1963.73 767.855 1963.19 767.59 1962.6C767.324 1962 767.18 1961.36 767.165 1960.71C767.149 1960.06 767.263 1959.41 767.5 1958.8C767.984 1957.61 768.906 1956.65 770.078 1956.12C771.249 1955.59 772.58 1955.53 773.795 1955.95C776.45 1957.03 1031.48 2057.35 1054 2270.68C1054.14 2271.97 1053.76 2273.27 1052.95 2274.28C1052.14 2275.29 1050.96 2275.94 1049.68 2276.09L1049.09 2275.9Z" fill="white"/>
<path d="M3495.43 2147.35C3496.51 2143.9 3538.7 1926.74 3495.43 1772.72C3456.09 1631.48 3404.75 1579.36 3331.57 1567.85C3258.4 1556.34 3226.63 1609.06 3265.48 1680.46C3304.33 1751.87 3397.86 1846.58 3420.78 2006.11C3430.61 2071.81 3438.09 2128.86 3438.09 2128.86L3495.43 2147.35Z" fill="#38BB3D"/>
<path opacity="0.2" d="M3495.43 2147.35C3496.51 2143.9 3538.7 1926.74 3495.43 1772.72C3456.09 1631.48 3404.75 1579.36 3331.57 1567.85C3258.4 1556.34 3226.63 1609.06 3265.48 1680.46C3304.33 1751.87 3397.86 1846.58 3420.78 2006.11C3430.61 2071.81 3438.09 2128.86 3438.09 2128.86L3495.43 2147.35Z" fill="black"/>
<path d="M3470.74 2022.64C3470.09 2022.6 3469.46 2022.43 3468.88 2022.15C3468.3 2021.87 3467.78 2021.47 3467.35 2020.99C3466.92 2020.5 3466.59 2019.94 3466.38 2019.33C3466.17 2018.72 3466.08 2018.07 3466.12 2017.42C3475.95 1841.57 3418.52 1684.6 3315.54 1607.58C3314.5 1606.8 3313.81 1605.64 3313.62 1604.35C3313.44 1603.05 3313.77 1601.74 3314.56 1600.7C3315.35 1599.68 3316.52 1599 3317.8 1598.82C3319.08 1598.64 3320.39 1598.96 3321.44 1599.72C3426.97 1678.4 3486.18 1838.91 3475.85 2018.01C3475.78 2019.3 3475.2 2020.51 3474.24 2021.37C3473.29 2022.23 3472.03 2022.69 3470.74 2022.64Z" fill="white"/>
<path d="M3608.63 2260.45C3603.03 2220.03 3626.24 2159.44 3681.41 2145.08C3736.59 2130.73 3761.18 2099.06 3741.31 2064.44C3721.44 2029.81 3726.07 1998.05 3776.13 1983.69C3826.19 1969.33 3870.06 1944.35 3841.24 1891.43C3820.29 1853.17 3815.67 1828.39 3867.01 1753.05C3909.59 1690.5 3874.78 1653.81 3821.47 1660.69C3768.16 1667.58 3735.21 1731.12 3701.87 1741.74C3668.53 1752.36 3660.86 1695.71 3616.89 1721.08C3572.93 1746.46 3575.59 1811.47 3574.21 1856.81C3572.83 1902.15 3569.88 1912.38 3530.15 1906.87C3490.41 1901.37 3451.46 1907.86 3452.35 2003.95C3453.04 2086.37 3497 2188.46 3497 2188.46L3608.63 2260.45Z" fill="#38BB3D"/>
<path d="M3538.9 2198.98H3538.41C3537.09 2198.83 3535.89 2198.17 3535.06 2197.14C3534.23 2196.11 3533.84 2194.79 3533.98 2193.47C3561.72 1945.72 3774.36 1736.72 3829.83 1694.33C3830.87 1693.54 3832.19 1693.19 3833.49 1693.36C3834.79 1693.54 3835.97 1694.22 3836.76 1695.27C3837.56 1696.31 3837.91 1697.63 3837.73 1698.93C3837.56 1700.23 3836.87 1701.4 3835.83 1702.2C3781.05 1744 3571.16 1950.25 3543.82 2194.56C3543.67 2195.77 3543.1 2196.88 3542.19 2197.7C3541.29 2198.51 3540.12 2198.97 3538.9 2198.98Z" fill="white"/>
<path d="M3635.88 1934.12C3634.88 1934.11 3633.91 1933.81 3633.09 1933.25C3632.26 1932.69 3631.62 1931.89 3631.25 1930.97C3630.83 1929.73 3630.9 1928.37 3631.45 1927.18C3632 1925.99 3632.99 1925.06 3634.2 1924.58C3713.48 1895.07 3803.37 1909.04 3807.21 1909.63C3808.48 1909.84 3809.62 1910.55 3810.37 1911.6C3811.13 1912.65 3811.44 1913.96 3811.24 1915.23C3811 1916.5 3810.29 1917.63 3809.25 1918.4C3808.21 1919.17 3806.92 1919.51 3805.63 1919.36C3804.75 1919.36 3714.46 1905.2 3637.65 1933.82C3637.08 1934.01 3636.48 1934.11 3635.88 1934.12Z" fill="white"/>
<path d="M3565.26 2083.02C3564.57 2083.02 3563.89 2082.86 3563.26 2082.58C3562.63 2082.29 3562.07 2081.87 3561.62 2081.35C3528.65 2042.96 3506.31 1996.61 3496.8 1946.9C3496.71 1946.26 3496.74 1945.61 3496.89 1944.98C3497.05 1944.35 3497.32 1943.76 3497.71 1943.24C3498.09 1942.72 3498.57 1942.28 3499.13 1941.95C3499.68 1941.61 3500.3 1941.39 3500.94 1941.3C3501.57 1941.2 3502.23 1941.23 3502.86 1941.38C3503.48 1941.54 3504.07 1941.82 3504.6 1942.2C3505.12 1942.58 3505.56 1943.07 3505.89 1943.62C3506.22 1944.17 3506.45 1944.79 3506.54 1945.43C3515.94 1993.17 3537.45 2037.71 3569 2074.76C3569.61 2075.49 3570.01 2076.37 3570.14 2077.31C3570.27 2078.25 3570.13 2079.21 3569.74 2080.08C3569.35 2080.94 3568.72 2081.68 3567.93 2082.2C3567.13 2082.72 3566.21 2083.01 3565.26 2083.02Z" fill="white"/>
<path d="M1044.66 761.156V2283.47L2602.77 1383.93L2602.67 0L1444.17 668.901L1404.14 553.532L1044.66 761.156Z" fill="#38BB3D"/>
<path opacity="0.7" d="M1044.66 761.156V2283.47L2602.77 1383.93L2602.67 0L1444.17 668.901L1404.14 553.532L1044.66 761.156Z" fill="black"/>
<path d="M1044.66 2283.47L1124.52 899.539L2682.64 0L2602.77 1383.93L1044.66 2283.47Z" fill="#E0E0E0"/>
<path d="M1044.66 2283.47L1164.45 922.652L2722.57 23.0146L2602.77 1383.93L1044.66 2283.47Z" fill="#38BB3D"/>
<path opacity="0.7" d="M1044.66 2283.47L1164.45 922.652L2722.57 23.0146L2602.77 1383.93L1044.66 2283.47Z" fill="black"/>
<path d="M1284.35 899.539V2421.95L2842.46 1522.31V138.383L1683.86 807.284L1643.93 691.915L1284.35 899.539Z" fill="#38BB3D"/>
<path opacity="0.5" d="M1284.35 899.539V2421.95L2842.46 1522.31V138.383L1683.86 807.284L1643.93 691.915L1284.35 899.539Z" fill="black"/>
<path d="M1284.35 2421.95L1364.21 1037.92L2922.32 138.383L2842.46 1522.31L1284.35 2421.95Z" fill="#E0E0E0"/>
<path d="M1284.35 2421.95L1404.14 1061.04L2962.25 161.397L2842.46 1522.31L1284.35 2421.95Z" fill="#38BB3D"/>
<path opacity="0.5" d="M1284.35 2421.95L1404.14 1061.04L2962.25 161.397L2842.46 1522.31L1284.35 2421.95Z" fill="black"/>
<path d="M2602.38 2906.34C2322.66 2744.84 2063.21 2569.28 1944.79 2363.33L2304.76 2155.51L2602.38 2906.34Z" fill="#E0E0E0"/>
<path d="M1563.96 1061.04V2583.35L3122.08 1683.81V299.879L1963.48 968.78L1923.54 853.411L1563.96 1061.04Z" fill="#38BB3D"/>
<path opacity="0.2" d="M1563.96 1061.04V2583.35L3122.08 1683.81V299.879L1963.48 968.78L1923.54 853.411L1563.96 1061.04Z" fill="black"/>
<path d="M1563.96 2583.35L1843.58 1360.91L3401.7 461.276L3122.08 1683.81L1563.96 2583.35Z" fill="#38BB3D"/>
<path d="M1945.18 1456.61V2363.33L2304.76 2155.71V1249.09L1945.18 1456.61Z" fill="#38BB3D"/>
<path opacity="0.2" d="M1945.18 1456.61V2363.33L2304.76 2155.71V1249.09L1945.18 1456.61Z" fill="black"/>
<path d="M2603.07 2900.44C2572.48 2877.62 2277.62 2652.29 2127.73 2329.99C1968.2 1987.33 1968.39 1587.62 1968.39 1437.24V1432.52L3037.3 815.447C3037.3 967.206 3037.3 1367.5 3197.52 1711.35C3343.96 2026.08 3627.52 2248.55 3672.46 2282.58L2603.07 2900.44Z" fill="white"/>
<path d="M3032.38 824.299C3032.38 982.451 3035.43 1375.08 3193.09 1713.81C3334.62 2017.72 3603.71 2236.26 3663.61 2282.39L2603.36 2894.54C2561.96 2863.36 2278.21 2641.77 2132.25 2328.32C1972.92 1986.64 1972.92 1587.72 1972.92 1437.53V1435.66L3031.99 824.2M3041.82 807.185L1963.08 1430.06C1963.08 1571.59 1960.13 1982.8 2122.91 2332.45C2283.12 2675.6 2602.38 2906.34 2602.38 2906.34L3681.41 2283.37C3681.41 2283.37 3361.77 2052.63 3202.04 1709.48C3039.17 1359.83 3042.22 948.617 3042.22 807.087L3041.82 807.185Z" fill="#38BB3D"/>
<path opacity="0.7" d="M3032.38 824.299C3032.38 982.451 3035.43 1375.08 3193.09 1713.81C3334.62 2017.72 3603.71 2236.26 3663.61 2282.39L2603.36 2894.54C2561.96 2863.36 2278.21 2641.77 2132.25 2328.32C1972.92 1986.64 1972.92 1587.72 1972.92 1437.53V1435.66L3031.99 824.2M3041.82 807.185L1963.08 1430.06C1963.08 1571.59 1960.13 1982.8 2122.91 2332.45C2283.12 2675.6 2602.38 2906.34 2602.38 2906.34L3681.41 2283.37C3681.41 2283.37 3361.77 2052.63 3202.04 1709.48C3039.17 1359.83 3042.22 948.617 3042.22 807.087L3041.82 807.185Z" fill="white"/>
<path d="M2920.16 1016.09L2579.07 1212.79C2572.24 1216.55 2566.42 1221.9 2562.11 1228.39C2557.79 1234.88 2555.11 1242.32 2554.28 1250.07C2554.78 1262.56 2566.68 1266.1 2580.74 1257.94L2921.93 1061.23C2928.68 1057.51 2934.44 1052.23 2938.73 1045.83C2943.02 1039.43 2945.73 1032.1 2946.62 1024.45C2946.03 1011.47 2934.32 1007.92 2920.16 1016.09Z" fill="#455A64"/>
<path d="M2927.44 1150.34L2586.35 1347.05C2579.6 1350.68 2573.88 1355.95 2569.72 1362.38C2565.56 1368.81 2563.09 1376.19 2562.55 1383.83C2563.63 1395.93 2576.02 1399.17 2590.09 1391.01L2931.27 1194.3C2937.99 1190.69 2943.67 1185.43 2947.78 1179.01C2951.89 1172.59 2954.3 1165.23 2954.78 1157.62C2953.8 1145.42 2941.6 1142.47 2927.44 1150.34Z" fill="#455A64"/>
<path d="M2941.11 1280.86L2599.92 1477.56C2585.86 1485.73 2575.63 1501.95 2577.3 1513.66C2578.97 1525.36 2591.86 1528.41 2606.02 1520.25L2947.21 1323.54C2961.27 1315.38 2971.3 1299.25 2969.53 1287.54C2967.76 1275.84 2955.17 1272.69 2941.11 1280.86Z" fill="#455A64"/>
<path d="M2961.57 1407.44L2620.38 1604.14C2606.31 1612.31 2596.58 1628.24 2598.94 1639.65C2601.3 1651.06 2614.67 1653.61 2628.44 1645.45L2969.53 1448.74C2983.7 1440.58 2993.14 1424.75 2990.78 1413.34C2988.42 1401.93 2976.12 1399.27 2961.57 1407.44Z" fill="#455A64"/>
<path d="M2989.3 1529.79L2648.11 1726.49C2634.05 1734.66 2624.9 1750.2 2628.44 1761.11C2631.98 1772.03 2645.46 1774.49 2659.52 1766.33L3000.71 1569.62C3014.87 1561.46 3023.72 1546.02 3020.38 1535C3017.04 1523.98 3003.37 1521.62 2989.3 1529.79Z" fill="#455A64"/>
<path d="M3025.3 1647.71L2193.82 2127.77C2179.76 2135.94 2171.2 2151.08 2175.03 2161.61C2178.87 2172.13 2193.52 2174.1 2207.59 2165.94L3039.07 1685.87C3053.23 1677.71 3061.39 1662.66 3057.56 1652.04C3053.72 1641.42 3038.87 1639.55 3025.3 1647.71Z" fill="#455A64"/>
<path d="M3069.07 1760.33L2237.69 2240.39C2223.52 2248.55 2215.75 2263.31 2220.47 2273.34C2225.19 2283.37 2240.14 2284.94 2254.5 2276.78L3085.98 1796.72C3100.15 1788.56 3107.72 1773.8 3103 1763.77C3098.28 1753.74 3083.23 1752.26 3069.07 1760.33Z" fill="#455A64"/>
<path d="M3123.65 1867.63L2292.17 2347.69C2278.01 2355.86 2271.03 2370.22 2276.63 2379.76C2282.24 2389.3 2298.27 2390.28 2312.43 2382.12L3143.32 1902.05C3157.39 1893.99 3164.17 1879.73 3158.57 1870.19C3152.96 1860.65 3137.42 1859.47 3123.65 1867.63Z" fill="#455A64"/>
<path d="M3187.29 1969.13L2355.91 2449.1C2341.74 2457.26 2335.45 2471.32 2341.84 2480.27C2348.23 2489.22 2365.05 2490.11 2379.22 2481.85L3210.6 2001.78C3224.76 1993.62 3230.86 1979.75 3224.46 1970.7C3218.07 1961.66 3201.45 1960.97 3187.29 1969.13Z" fill="#455A64"/>
<path d="M3259.87 2065.62L2428.39 2545.58C2414.33 2553.74 2408.72 2567.41 2415.8 2575.97C2422.88 2584.53 2440.29 2584.92 2454.46 2576.76L3285.93 2096.5C3300 2088.34 3305.61 2074.86 3298.33 2066.3C3291.05 2057.75 3274.03 2057.16 3259.87 2065.62Z" fill="#455A64"/>
<path d="M3340.03 2157.48L2508.85 2637.44C2494.68 2645.6 2489.17 2658.98 2497.44 2666.95C2505.7 2674.91 2523.2 2675.11 2537.27 2666.95L3368.75 2186.88C3382.91 2178.72 3387.83 2165.54 3379.96 2157.38C3372.09 2149.22 3354.39 2149.41 3340.03 2157.48Z" fill="#455A64"/>
<path d="M3428.55 2245.31L2597.07 2725.27C2583 2733.43 2578.38 2746.52 2587.23 2754.29C2596.08 2762.06 2614.18 2761.76 2628.34 2753.6L3459.13 2273.53C3473.2 2265.37 3477.63 2252.59 3468.97 2244.72C3460.32 2236.85 3442.32 2237.14 3428.55 2245.31Z" fill="#455A64"/>
<path d="M2455.44 1284.49L2063.21 1510.71C2067.53 1652.83 2083.76 1857.8 2143.17 2064.24L2535.5 1838.03C2476 1631.58 2459.77 1426.52 2455.44 1284.49Z" fill="#38BB3D"/>
<path opacity="0.8" d="M2455.44 1284.49L2063.21 1510.71C2067.53 1652.83 2083.76 1857.8 2143.17 2064.24L2535.5 1838.03C2476 1631.58 2459.77 1426.52 2455.44 1284.49Z" fill="white"/>
<path d="M2223.13 1479.43C2223.66 1470.26 2222.23 1461.07 2218.94 1452.49C2215.65 1443.91 2210.57 1436.13 2204.05 1429.66L2063.21 1510.9C2064.39 1548.47 2066.35 1590.47 2069.8 1635.71C2088.12 1637.82 2106.65 1634.4 2123.01 1625.88C2178.38 1600.5 2223.13 1534.7 2223.13 1479.43Z" fill="#38BB3D"/>
<path opacity="0.6" d="M2223.13 1479.43C2223.66 1470.26 2222.23 1461.07 2218.94 1452.49C2215.65 1443.91 2210.57 1436.13 2204.05 1429.66L2063.21 1510.9C2064.39 1548.47 2066.35 1590.47 2069.8 1635.71C2088.12 1637.82 2106.65 1634.4 2123.01 1625.88C2178.38 1600.5 2223.13 1534.7 2223.13 1479.43Z" fill="white"/>
<path d="M2502.16 1702.3C2476 1669.35 2422.79 1567.55 2400.07 1523.2C2399.17 1521.44 2397.78 1520 2396.05 1519.05C2394.33 1518.1 2392.36 1517.69 2390.4 1517.87C2388.44 1518.05 2386.58 1518.81 2385.06 1520.06C2383.54 1521.31 2382.43 1522.98 2381.87 1524.87C2357.29 1608.89 2343.02 1695.58 2339.38 1783.05C2306.63 1757.04 2278.47 1725.72 2256.08 1690.4C2255.12 1689.03 2253.8 1687.96 2252.26 1687.32C2250.71 1686.68 2249.02 1686.5 2247.38 1686.78C2245.74 1687.07 2244.21 1687.83 2242.98 1688.96C2241.75 1690.08 2240.87 1691.54 2240.44 1693.15C2197.56 1858.29 2219.1 2020.77 2219.1 2020.77L2535.5 1838.03C2522.32 1792.39 2511.4 1746.95 2502.16 1702.3Z" fill="#38BB3D"/>
<path opacity="0.6" d="M2502.16 1702.3C2476 1669.35 2422.79 1567.55 2400.07 1523.2C2399.17 1521.44 2397.78 1520 2396.05 1519.05C2394.33 1518.1 2392.36 1517.69 2390.4 1517.87C2388.44 1518.05 2386.58 1518.81 2385.06 1520.06C2383.54 1521.31 2382.43 1522.98 2381.87 1524.87C2357.29 1608.89 2343.02 1695.58 2339.38 1783.05C2306.63 1757.04 2278.47 1725.72 2256.08 1690.4C2255.12 1689.03 2253.8 1687.96 2252.26 1687.32C2250.71 1686.68 2249.02 1686.5 2247.38 1686.78C2245.74 1687.07 2244.21 1687.83 2242.98 1688.96C2241.75 1690.08 2240.87 1691.54 2240.44 1693.15C2197.56 1858.29 2219.1 2020.77 2219.1 2020.77L2535.5 1838.03C2522.32 1792.39 2511.4 1746.95 2502.16 1702.3Z" fill="white"/>
</svg>
