<svg width="7969" height="6462" viewBox="0 0 7969 6462" fill="none" xmlns="http://www.w3.org/2000/svg">
<path d="M3984.28 6461.55C6184.73 6461.55 7968.56 5508.58 7968.56 4333.04C7968.56 3157.5 6184.73 2204.54 3984.28 2204.54C1783.82 2204.54 0 3157.5 0 4333.04C0 5508.58 1783.82 6461.55 3984.28 6461.55Z" fill="#F5F5F5"/>
<path d="M2380.89 5517.87L1110.57 4779.27L3259.25 3537.51L2380.89 5517.87Z" fill="#E0E0E0"/>
<path d="M547.254 4733.93L1064.88 5032.37C1075.64 5037.83 1087.53 5040.67 1099.59 5040.67C1111.66 5040.67 1123.55 5037.83 1134.31 5032.37L1848.28 4615.77C1852.48 4614.38 1856.13 4611.7 1858.72 4608.11C1861.31 4604.52 1862.71 4600.21 1862.71 4595.78C1862.71 4591.36 1861.31 4587.04 1858.72 4583.46C1856.13 4579.87 1852.48 4577.19 1848.28 4575.79L1330.65 4277.18C1319.89 4271.72 1308 4268.88 1295.93 4268.88C1283.87 4268.88 1271.98 4271.72 1261.22 4277.18L547.254 4693.77C543.075 4695.22 539.449 4697.92 536.883 4701.52C534.317 4705.12 532.938 4709.43 532.938 4713.85C532.938 4718.28 534.317 4722.59 536.883 4726.19C539.449 4729.78 543.075 4732.49 547.254 4733.93Z" fill="#E0E0E0"/>
<path d="M603.3 4687.53C567.602 4630.05 457.473 4566.87 312.895 4535.63C168.317 4504.4 23.0257 4466.2 56.2251 4381.77C91.9233 4291.28 226.506 4286.81 358.054 4340.72C501.739 4399.62 607.941 4545.27 609.904 4637.01L603.3 4687.53Z" fill="#38BB3D"/>
<g opacity="0.1">
<path d="M603.3 4687.53C567.602 4630.05 457.473 4566.87 312.895 4535.63C168.317 4504.4 23.0257 4466.2 56.2251 4381.77C91.9233 4291.28 226.506 4286.81 358.054 4340.72C501.739 4399.62 607.941 4545.27 609.904 4637.01L603.3 4687.53Z" fill="black"/>
</g>
<path d="M614.545 4661.47C612.511 4661.45 610.525 4660.85 608.818 4659.74C607.111 4658.64 605.754 4657.07 604.907 4655.22C490.137 4417.83 224.007 4379.45 140.83 4392.48C137.992 4392.89 135.107 4392.16 132.801 4390.46C130.495 4388.76 128.955 4386.21 128.514 4383.38C128.285 4381.98 128.335 4380.56 128.661 4379.18C128.986 4377.8 129.581 4376.51 130.411 4375.36C131.24 4374.22 132.288 4373.25 133.495 4372.51C134.701 4371.77 136.042 4371.28 137.439 4371.06C225.613 4357.5 504.952 4397.3 625.076 4645.94C626.312 4648.52 626.48 4651.49 625.544 4654.19C624.609 4656.9 622.645 4659.13 620.079 4660.4C618.348 4661.2 616.449 4661.56 614.545 4661.47Z" fill="white"/>
<path d="M603.3 4687.53C603.3 4687.53 534.224 4413.9 359.125 4266.82C307.184 4223.09 252.03 4168.3 212.94 4130.63C129.764 4049.6 164.569 3961.25 279.696 3963.03C451.047 3965.35 576.348 4109.57 630.609 4298.24C684.871 4486.9 603.3 4687.53 603.3 4687.53Z" fill="#38BB3D"/>
<path d="M630.61 4581.32C627.898 4581.34 625.279 4580.34 623.266 4578.52C621.252 4576.71 619.988 4574.21 619.722 4571.51C587.593 4223.45 321.998 4048.53 249.71 4029.97C246.94 4029.26 244.566 4027.47 243.11 4025.01C241.654 4022.55 241.235 4019.62 241.945 4016.85C242.655 4014.08 244.436 4011.7 246.897 4010.25C249.357 4008.79 252.295 4008.37 255.064 4009.08C342.882 4031.57 608.298 4213.1 641.319 4569.54C641.567 4572.41 640.675 4575.25 638.836 4577.46C636.997 4579.66 634.361 4581.05 631.502 4581.32H630.61Z" fill="white"/>
<path d="M1082.37 4988.46L594.732 4706.8L594.554 3660.85L1082.37 3942.5V4988.46Z" fill="#263238"/>
<path d="M1082.37 3942.5L1779.2 3540.19V4586.14L1082.37 4988.46V3942.5Z" fill="#37474F"/>
<path d="M1779.2 3540.19L1082.37 3942.5L594.554 3660.85L1291.56 3258.53L1779.2 3540.19Z" fill="#455A64"/>
<path d="M1383.48 3929.65L1478.26 3874.86C1490.58 3867.72 1500.57 3870.93 1500.57 3882.17C1499.67 3889.01 1497.18 3895.54 1493.31 3901.24C1489.43 3906.94 1484.28 3911.66 1478.26 3915.02L1383.48 3969.81C1371.17 3976.95 1361.17 3973.74 1361.17 3962.5C1362.08 3955.66 1364.57 3949.13 1368.44 3943.43C1372.31 3937.73 1377.46 3933.01 1383.48 3929.65Z" fill="#263238"/>
<path d="M1139.31 4472.98L1696.74 4151.16L1709.59 4158.48L1696.74 4538.49L1709.59 4545.98L1152.16 4867.8L1139.31 4860.3V4472.98Z" fill="#263238"/>
<path d="M1152.16 4480.3L1709.59 4158.48V4545.98L1152.16 4867.8V4480.3Z" fill="#455A64"/>
<path d="M1370.63 4419.79L1465.41 4365.17C1477.73 4358.03 1487.72 4361.24 1487.72 4372.31C1486.83 4379.17 1484.35 4385.73 1480.48 4391.46C1476.6 4397.19 1471.44 4401.94 1465.41 4405.33L1370.63 4460.13C1358.32 4467.27 1348.32 4463.88 1348.32 4452.81C1349.24 4445.96 1351.73 4439.41 1355.6 4433.68C1359.47 4427.95 1364.62 4423.2 1370.63 4419.79Z" fill="#263238"/>
<path d="M1139.31 3991.05L1696.74 3669.23L1709.59 3676.55L1696.74 4056.56L1709.59 4064.06L1152.16 4385.88L1139.31 4378.38V3991.05Z" fill="#263238"/>
<path d="M1152.16 3998.37L1709.59 3676.55V4064.06L1152.16 4385.88V3998.37Z" fill="#455A64"/>
<path d="M1370.63 3937.86L1465.41 3883.24C1477.73 3876.11 1487.72 3879.32 1487.72 3890.38C1486.83 3897.25 1484.35 3903.8 1480.48 3909.54C1476.6 3915.27 1471.44 3920.02 1465.41 3923.41L1370.63 3978.2C1358.32 3985.34 1348.32 3981.95 1348.32 3970.88C1349.24 3964.03 1351.73 3957.49 1355.6 3951.76C1359.47 3946.03 1364.62 3941.27 1370.63 3937.86Z" fill="#263238"/>
<path d="M1082.37 3898.06L594.732 3616.4L594.554 2570.27L1082.37 2851.92V3898.06Z" fill="#263238"/>
<path d="M1082.37 2851.92L1779.2 2449.61V3495.74L1082.37 3898.06V2851.92Z" fill="#37474F"/>
<path d="M1779.2 2449.61L1082.37 2851.92L594.554 2570.27L1291.56 2167.95L1779.2 2449.61Z" fill="#455A64"/>
<path d="M1152.16 2892.08L1709.59 2570.27L1722.44 2577.76V2965.09L1165.01 3287.09L1152.16 3279.59V2892.08Z" fill="#263238"/>
<path d="M1383.48 2839.07L1478.26 2784.28C1490.58 2777.14 1500.57 2780.53 1500.57 2791.59C1499.66 2798.45 1497.16 2804.99 1493.29 2810.72C1489.42 2816.45 1484.28 2821.21 1478.26 2824.62L1383.48 2879.23C1371.17 2886.37 1361.17 2883.16 1361.17 2872.09C1362.07 2865.23 1364.55 2858.68 1368.42 2852.94C1372.29 2847.21 1377.45 2842.46 1383.48 2839.07Z" fill="#263238"/>
<path d="M1139.31 3382.4L1696.74 3060.58V3448.08L1709.59 3455.4L1152.16 3777.22L1139.31 3769.9V3382.4Z" fill="#263238"/>
<path d="M1152.16 3389.9L1709.59 3067.9V3455.4L1152.16 3777.22V3389.9Z" fill="#455A64"/>
<path d="M1370.63 3329.39L1465.41 3274.59C1477.73 3267.45 1487.72 3270.66 1487.72 3281.91C1486.82 3288.74 1484.33 3295.27 1480.46 3300.97C1476.58 3306.67 1471.43 3311.39 1465.41 3314.75L1370.63 3369.55C1358.32 3376.69 1348.32 3373.47 1348.32 3362.23C1349.23 3355.4 1351.71 3348.87 1355.59 3343.17C1359.46 3337.47 1364.61 3332.75 1370.63 3329.39Z" fill="#263238"/>
<path d="M1152.16 2892.09L1709.59 2570.27V2957.77L1152.16 3279.59V2892.09Z" fill="#263238"/>
<path d="M1988.39 2761.61L1683.17 2585.62V2926.89L1988.39 3103.06V2761.61Z" fill="#263238"/>
<path d="M1361.17 3334.74V2851.92L1480.76 2782.67L1500.57 2811.76L1848.99 2610.43V3053.08L1361.17 3334.74Z" fill="#38BB3D"/>
<g opacity="0.2">
<path d="M1361.17 3334.74V2851.92L1480.76 2782.67L1500.57 2811.76L1848.99 2610.43V3053.08L1361.17 3334.74Z" fill="black"/>
</g>
<path d="M1361.17 3334.74L1395.98 2912.25L1883.79 2630.6L1848.99 3053.08L1361.17 3334.74Z" fill="#38BB3D"/>
<path d="M1430.78 3083.61L1164.83 2930.1V3271.38L1430.78 3424.88V3083.61Z" fill="#37474F"/>
<path d="M1430.78 3053.08L1988.39 2731.26V3118.59L1430.78 3440.59V3053.08Z" fill="#455A64"/>
<path d="M1649.44 2992.58L1744.22 2937.78C1756.53 2930.64 1766.53 2934.03 1766.53 2945.1C1765.61 2951.95 1763.12 2958.5 1759.24 2964.22C1755.37 2969.95 1750.23 2974.71 1744.22 2978.12L1649.44 3032.74C1637.12 3039.88 1627.12 3036.66 1627.12 3025.6C1628.04 3018.74 1630.54 3012.2 1634.41 3006.47C1638.28 3000.74 1643.42 2995.98 1649.44 2992.58Z" fill="#263238"/>
<path d="M1430.78 3053.08L1412.22 3042.37V3429.88L1430.78 3440.59V3053.08Z" fill="#263238"/>
<path d="M1412.22 3042.37L1969.83 2720.55L1988.39 2731.26L1430.78 3053.08L1412.22 3042.37Z" fill="#37474F"/>
<path d="M6087.44 259.163L6014.97 217.039L2316.81 2351.79V5443.79C2315.83 5453.37 2317.39 5463.03 2321.34 5471.81C2325.29 5480.58 2331.48 5488.16 2339.3 5493.77L2411.77 5535.89C2420.56 5539.93 2430.27 5541.57 2439.89 5540.63C2449.52 5539.69 2458.73 5536.2 2466.57 5530.54L6009.62 3484.5C6032.11 3469.82 6050.82 3450.05 6064.25 3426.79C6077.68 3403.54 6085.44 3377.44 6086.9 3350.63L6087.44 259.163Z" fill="#E6E6E6"/>
<path d="M2389.28 5485.92C2389.28 5535.18 2423.73 5555.17 2466.57 5530.54L6009.62 3484.5C6032.11 3469.82 6050.82 3450.05 6064.25 3426.79C6077.68 3403.54 6085.44 3377.44 6086.9 3350.63V259.163L2389.28 2394.09V5485.92Z" fill="#FAFAFA"/>
<path d="M6069.59 289.507V3350.99C6068.12 3374.68 6061.19 3397.71 6049.32 3418.27C6037.46 3438.83 6021 3456.37 6001.23 3469.5L2458.18 5515.01C2450.45 5519.9 2441.6 5522.72 2432.48 5523.22C2409.99 5523.22 2407.67 5497.16 2407.67 5485.92V2404.27L6069.59 289.507ZM6087.44 258.628L2389.28 2394.1V5485.92C2389.28 5521.62 2407.13 5541.07 2431.94 5541.07C2444.2 5540.59 2456.12 5536.97 2466.57 5530.54L6009.62 3484.5C6032.11 3469.82 6050.82 3450.05 6064.25 3426.79C6077.68 3403.54 6085.44 3377.44 6086.9 3350.63V259.164L6087.44 258.628Z" fill="#E0E0E0"/>
<path d="M2389.28 2394.09V2728.77L6086.9 593.834V259.163L2389.28 2394.09Z" fill="#38BB3D"/>
<path d="M4709.31 1185.71V1257.11C4709.31 1271.74 4719.84 1277.81 4732.51 1270.49L5869.32 614.003V489.06L4732.51 1146.26C4725.88 1150.62 4720.34 1156.44 4716.31 1163.28C4712.29 1170.12 4709.89 1177.8 4709.31 1185.71Z" fill="#FAFAFA"/>
<path d="M5991.23 418.912C6004.08 411.416 6014.44 417.485 6014.44 432.299V503.696C6014.01 511.747 6011.69 519.583 6007.66 526.563C6003.63 533.544 5998 539.47 5991.23 543.856L5869.32 614.182V489.238L5991.23 418.912Z" fill="#455A64"/>
<path d="M5982.31 517.618L5968.56 513.334C5970.08 507.504 5970.85 501.508 5970.88 495.485C5971.49 489.995 5970.66 484.441 5968.47 479.37C5966.28 474.299 5962.81 469.887 5958.39 466.569C5955.39 464.795 5951.97 463.858 5948.48 463.858C5945 463.858 5941.58 464.795 5938.58 466.569C5929.93 473.209 5922.97 481.791 5918.25 491.62C5913.54 501.45 5911.21 512.252 5911.45 523.151C5910.8 528.644 5911.61 534.211 5913.81 539.288C5916 544.365 5919.5 548.773 5923.94 552.067C5926.52 553.638 5929.49 554.443 5932.51 554.387C5936.41 554.303 5940.23 553.196 5943.57 551.174C5953.97 544.082 5961.7 533.715 5965.53 521.723L5979.27 526.007H5980.34C5981.4 526.025 5982.44 525.707 5983.31 525.097C5984.17 524.488 5984.82 523.618 5985.16 522.615C5985.23 521.593 5985 520.573 5984.49 519.683C5983.99 518.793 5983.22 518.075 5982.31 517.618ZM5938.58 543.677C5937.22 544.718 5935.59 545.353 5933.89 545.511C5932.18 545.669 5930.47 545.343 5928.94 544.57C5926.17 542.055 5924.06 538.904 5922.79 535.39C5921.51 531.876 5921.11 528.104 5921.62 524.4C5921.44 515.288 5923.32 506.254 5927.12 497.971C5930.93 489.687 5936.55 482.37 5943.57 476.565C5945.46 475.396 5947.61 474.721 5949.82 474.601C5951.09 474.598 5952.33 474.971 5953.39 475.672C5956.12 478.215 5958.21 481.369 5959.48 484.876C5960.75 488.382 5961.17 492.141 5960.71 495.842C5960.85 504.966 5958.94 514.006 5955.11 522.288C5951.28 530.57 5945.63 537.881 5938.58 543.677Z" fill="#FAFAFA"/>
<path d="M5992.48 5.52691C5983.68 1.21905 5973.87 -0.592786 5964.12 0.288417C5954.36 1.16962 5945.03 4.71021 5937.15 10.5248L2394.1 2056.57C2371.58 2071.21 2352.84 2090.97 2339.41 2114.24C2325.98 2137.5 2318.24 2163.61 2316.81 2190.44V2352.33L2389.28 2394.63L6087.44 259.163V97.2714C6088.53 87.7329 6087.03 78.0776 6083.1 69.3166C6079.18 60.5555 6072.97 53.0108 6065.13 47.4724C6051.74 39.6188 6005.15 13.202 5992.48 5.52691Z" fill="#263238"/>
<path d="M2389.28 2232.2C2390.68 2205.37 2398.41 2179.25 2411.84 2155.98C2425.27 2132.72 2444.03 2112.96 2466.57 2098.34L6009.62 52.6492C6052.28 28.0175 6086.9 48.0085 6086.9 97.272V259.163L2389.28 2394.1V2232.2Z" fill="#37474F"/>
<path d="M6065.31 47.8296C6056.48 43.426 6046.61 41.5458 6036.78 42.3961C6026.96 43.2465 6017.55 46.7946 6009.62 52.649L2466.57 2098.16C2443.74 2112.4 2424.94 2132.24 2411.95 2155.81L2339.13 2113.86C2352.18 2090.24 2371.04 2070.34 2393.92 2056.03L5937.15 10.3465C5945.05 4.56046 5954.39 1.05168 5964.14 0.201978C5973.9 -0.647723 5983.7 1.19412 5992.48 5.52721C6005.15 13.2023 6051.56 39.7976 6063.88 47.2942L6065.31 47.8296Z" fill="#455A64"/>
<path d="M5651.92 343.054C5641.47 350 5632.79 359.304 5626.59 370.217C5620.39 381.13 5616.84 393.347 5616.22 405.883C5616.22 428.908 5632.46 438.369 5651.92 426.767C5662.37 419.821 5671.05 410.517 5677.25 399.604C5683.45 388.691 5687 376.474 5687.62 363.938C5688.15 340.555 5671.91 331.095 5651.92 343.054Z" fill="#38BB3D"/>
<path d="M5778.83 269.694C5768.38 276.601 5759.7 285.872 5753.5 296.756C5747.3 307.641 5743.74 319.832 5743.13 332.344C5743.13 355.548 5759.37 364.83 5778.83 353.406C5789.26 346.44 5797.92 337.131 5804.12 326.223C5810.32 315.314 5813.88 303.107 5814.53 290.577C5815.06 267.374 5798.82 258.092 5778.83 269.694Z" fill="#38BB3D"/>
<path d="M5905.56 196.512C5895.1 203.458 5886.42 212.762 5880.22 223.675C5874.02 234.588 5870.47 246.805 5869.86 259.341C5869.86 282.545 5886.1 291.827 5905.56 280.225C5916.04 273.311 5924.74 264.014 5930.94 253.094C5937.15 242.175 5940.68 229.942 5941.25 217.396C5941.97 194.37 5925.73 184.91 5905.56 196.512Z" fill="#38BB3D"/>
<path d="M2466.57 5530.54L3114.31 5156.6V2310.03L2389.28 2728.77V5485.92C2389.28 5535.18 2423.73 5554.99 2466.57 5530.54Z" fill="#F5F5F5"/>
<path d="M3096.46 2340.9V5146.25L2457.64 5515.01C2449.92 5519.9 2441.07 5522.72 2431.94 5523.22C2409.45 5523.22 2407.13 5497.16 2407.13 5485.92V2738.94L3096.46 2340.9ZM3114.31 2310.03L2389.28 2728.77V5485.92C2389.28 5521.62 2407.13 5541.07 2431.94 5541.07C2444.2 5540.59 2456.12 5536.97 2466.57 5530.54L3114.31 5156.6V2310.03Z" fill="#E0E0E0"/>
<path d="M2629.89 2757.15L2976.87 2556.34C2989.55 2548.85 2999.9 2554.92 2999.9 2569.73V2599.89C2999.46 2607.92 2997.14 2615.73 2993.14 2622.7C2989.15 2629.68 2983.58 2635.62 2976.87 2640.06L2629.89 2840.5C2617.04 2848 2606.68 2841.93 2606.68 2827.11V2797.31C2607.16 2789.27 2609.51 2781.45 2613.54 2774.48C2617.56 2767.51 2623.16 2761.57 2629.89 2757.15Z" fill="#E0E0E0"/>
<path d="M2534.22 2839.25V2869.42C2533.78 2877.46 2531.45 2885.29 2527.42 2892.27C2523.39 2899.25 2517.77 2905.18 2511.01 2909.58L2484.95 2924.57C2472.1 2932.07 2461.75 2926 2461.75 2911.18V2881.02C2462.18 2872.97 2464.51 2865.14 2468.55 2858.16C2472.58 2851.18 2478.2 2845.25 2484.95 2840.86L2511.01 2825.86C2523.86 2818.37 2534.22 2824.08 2534.22 2839.25Z" fill="#38BB3D"/>
<path d="M2629.89 2924.03L2976.87 2723.59C2989.55 2716.09 2999.9 2722.16 2999.9 2736.8V2766.96C2999.46 2775.01 2997.14 2782.85 2993.15 2789.85C2989.15 2796.85 2983.58 2802.83 2976.87 2807.3L2629.89 3007.75C2617.04 3015.06 2606.68 3009.17 2606.68 2994.36V2964.19C2607.13 2956.15 2609.47 2948.32 2613.5 2941.35C2617.53 2934.37 2623.14 2928.44 2629.89 2924.03Z" fill="#E0E0E0"/>
<path d="M2534.22 3005.96V3036.13C2533.79 3044.18 2531.47 3052.01 2527.44 3058.99C2523.41 3065.97 2517.78 3071.9 2511.01 3076.29L2484.95 3091.46C2472.1 3098.78 2461.75 3092.89 2461.75 3078.07V3047.91C2462.17 3039.86 2464.49 3032.02 2468.53 3025.04C2472.56 3018.06 2478.19 3012.13 2484.95 3007.75L2511.01 2992.58C2523.86 2984.72 2534.22 2991.15 2534.22 3005.96Z" fill="#38BB3D"/>
<path d="M2629.89 3090.75L2976.87 2890.3C2989.55 2882.98 2999.9 2888.87 2999.9 2903.69V2933.85C2999.48 2941.88 2997.18 2949.7 2993.18 2956.68C2989.18 2963.66 2983.59 2969.6 2976.87 2974.01L2629.89 3174.46C2617.04 3181.95 2606.68 3175.89 2606.68 3161.25V3130.91C2607.17 3122.87 2609.53 3115.06 2613.55 3108.09C2617.58 3101.12 2623.17 3095.18 2629.89 3090.75Z" fill="#E0E0E0"/>
<path d="M2534.22 3172.85V3203.02C2533.79 3211.07 2531.47 3218.9 2527.44 3225.88C2523.41 3232.86 2517.78 3238.79 2511.01 3243.18L2484.95 3258.35C2472.1 3265.67 2461.75 3259.6 2461.75 3244.96V3214.62C2462.21 3206.58 2464.55 3198.76 2468.58 3191.78C2472.61 3184.81 2478.22 3178.88 2484.95 3174.46L2511.01 3159.46C2523.86 3152.15 2534.22 3158.04 2534.22 3172.85Z" fill="#38BB3D"/>
<path d="M2629.89 3644.07L2976.87 3443.44C2989.55 3436.13 2999.9 3442.02 2999.9 3456.83V3487C2999.48 3495.03 2997.18 3502.85 2993.18 3509.82C2989.18 3516.8 2983.59 3522.74 2976.87 3527.16L2629.89 3727.78C2617.04 3735.1 2606.68 3729.21 2606.68 3714.39V3684.23C2607.13 3676.18 2609.47 3668.36 2613.5 3661.38C2617.53 3654.41 2623.14 3648.47 2629.89 3644.07Z" fill="#E0E0E0"/>
<path d="M2534.22 3726V3756.16C2533.79 3764.21 2531.47 3772.05 2527.44 3779.03C2523.41 3786.01 2517.78 3791.93 2511.01 3796.32L2484.95 3811.49C2472.1 3818.81 2461.75 3812.92 2461.75 3798.11V3767.94C2462.17 3759.89 2464.49 3752.05 2468.53 3745.07C2472.56 3738.09 2478.19 3732.17 2484.95 3727.78L2511.01 3712.61C2523.86 3705.29 2534.22 3711.18 2534.22 3726Z" fill="#38BB3D"/>
<path d="M2629.89 3791.68L2976.87 3591.59C2989.55 3584.27 2999.9 3590.16 2999.9 3604.98V3635.14C2999.48 3643.18 2997.18 3651 2993.18 3657.97C2989.18 3664.95 2983.59 3670.89 2976.87 3675.3L2629.89 3875.39C2617.04 3882.89 2606.68 3876.82 2606.68 3862.01V3831.84C2607.17 3823.81 2609.53 3816 2613.55 3809.03C2617.58 3802.06 2623.17 3796.12 2629.89 3791.68Z" fill="#E0E0E0"/>
<path d="M2534.22 3873.79V3903.95C2533.79 3912 2531.47 3919.84 2527.44 3926.82C2523.41 3933.8 2517.78 3939.72 2511.01 3944.11L2484.95 3959.1C2472.1 3966.6 2461.75 3960.53 2461.75 3945.72V3915.55C2462.21 3907.51 2464.55 3899.69 2468.58 3892.72C2472.61 3885.74 2478.22 3879.81 2484.95 3875.39L2511.01 3860.4C2523.86 3853.08 2534.22 3859.33 2534.22 3873.79Z" fill="#38BB3D"/>
<path d="M2629.89 3939.47L2976.87 3739.03C2989.55 3731.53 2999.9 3737.6 2999.9 3752.41V3782.58C2999.46 3790.6 2997.14 3798.41 2993.14 3805.39C2989.15 3812.36 2983.58 3818.3 2976.87 3822.74L2629.89 4023.18C2617.04 4030.68 2606.68 4024.61 2606.68 4009.8V3979.63C2607.16 3971.59 2609.51 3963.78 2613.54 3956.81C2617.56 3949.84 2623.16 3943.9 2629.89 3939.47Z" fill="#E0E0E0"/>
<path d="M2534.22 4021.58V4051.74C2533.78 4059.79 2531.45 4067.62 2527.42 4074.6C2523.39 4081.58 2517.77 4087.51 2511.01 4091.9L2484.95 4106.9C2472.1 4114.39 2461.75 4108.32 2461.75 4093.51V4063.34C2462.18 4055.3 2464.51 4047.47 2468.55 4040.49C2472.58 4033.51 2478.2 4027.58 2484.95 4023.18L2511.01 4008.19C2523.86 4000.69 2534.22 4006.76 2534.22 4021.58Z" fill="#38BB3D"/>
<path d="M2606.68 3272.98V3324.93L2651.84 3272.98H2606.68Z" fill="#38BB3D"/>
<path d="M2679.33 3262.1C2679.33 3271.91 2686.11 3275.66 2694.68 3270.67L2984.55 3103.95C2989.03 3101.01 2992.76 3097.06 2995.43 3092.4C2998.09 3087.75 2999.63 3082.54 2999.9 3077.18C2999.9 3067.36 2993.12 3063.44 2984.55 3068.43L2694.68 3235.68C2690.22 3238.57 2686.51 3242.46 2683.84 3247.05C2681.18 3251.64 2679.63 3256.8 2679.33 3262.1Z" fill="#E0E0E0"/>
<path d="M2606.68 3356.52V3408.64L2651.84 3356.52H2606.68Z" fill="#38BB3D"/>
<path d="M2679.33 3345.81C2679.33 3355.45 2686.11 3359.37 2694.68 3354.38L2984.55 3187.49C2989.04 3184.6 2992.77 3180.67 2995.44 3176.05C2998.11 3171.42 2999.64 3166.23 2999.9 3160.89C2999.9 3151.08 2993.12 3147.15 2984.55 3152.15L2694.68 3319.39C2690.22 3322.28 2686.51 3326.17 2683.84 3330.76C2681.18 3335.35 2679.63 3340.51 2679.33 3345.81Z" fill="#E0E0E0"/>
<path d="M2606.68 3440.23V3492.35L2651.84 3440.23H2606.68Z" fill="#38BB3D"/>
<path d="M2679.33 3429.52C2679.33 3439.16 2686.11 3443.09 2694.68 3438.09L2984.55 3271.2C2989.04 3268.31 2992.77 3264.39 2995.44 3259.76C2998.11 3255.14 2999.64 3249.94 2999.9 3244.6C2999.9 3234.79 2993.12 3230.86 2984.55 3235.86L2694.68 3403.1C2690.22 3405.99 2686.51 3409.89 2683.84 3414.48C2681.18 3419.07 2679.63 3424.22 2679.33 3429.52Z" fill="#E0E0E0"/>
<path d="M2606.68 3523.94V3576.06L2651.84 3523.94H2606.68Z" fill="#38BB3D"/>
<path d="M2679.33 3513.23C2679.33 3522.87 2686.11 3526.8 2694.68 3521.8L2984.55 3354.91C2989.04 3352.02 2992.77 3348.1 2995.44 3343.47C2998.11 3338.85 2999.64 3333.65 2999.9 3328.32C2999.9 3318.5 2993.12 3314.57 2984.55 3319.57L2694.68 3486.82C2690.22 3489.7 2686.51 3493.6 2683.84 3498.19C2681.18 3502.78 2679.63 3507.93 2679.33 3513.23Z" fill="#E0E0E0"/>
<path d="M3331.71 2409.8V2846.03C3331.71 2863.88 3344.57 2871.74 3360.45 2862.63L3840.06 2585.62C3848.43 2580.21 3855.4 2572.89 3860.4 2564.26C3865.39 2555.64 3868.27 2545.95 3868.79 2535.99V2177.41C3868.79 2159.56 3855.94 2151.7 3840.06 2160.81L3561.79 2321.45C3545.9 2330.55 3533.05 2323.23 3533.05 2305.03V2293.6C3533.05 2275.75 3520.38 2267.9 3504.49 2277L3360.45 2360C3352.08 2365.46 3345.12 2372.81 3340.13 2381.47C3335.14 2390.12 3332.25 2399.83 3331.71 2409.8Z" fill="#38BB3D"/>
<path d="M3426.14 2928.32V2956.34C3426.14 2969.91 3435.77 2975.44 3447.55 2968.66L3807.39 2760.89C3813.63 2756.83 3818.83 2751.35 3822.55 2744.9C3826.27 2738.44 3828.42 2731.21 3828.81 2723.77V2695.74C3828.81 2682.18 3819.17 2676.65 3807.39 2683.43L3447.55 2891.19C3441.31 2895.26 3436.12 2900.74 3432.4 2907.19C3428.68 2913.64 3426.53 2920.88 3426.14 2928.32Z" fill="#E0E0E0"/>
<path d="M3999.09 2026.94V2463.17C3999.09 2481.02 4011.94 2488.7 4027.65 2479.59L4507.26 2202.75C4515.6 2197.31 4522.55 2189.99 4527.54 2181.37C4532.53 2172.75 4535.43 2163.08 4535.99 2153.13V1794.37C4535.99 1776.52 4523.14 1768.66 4507.26 1777.77L4228.99 1938.41C4213.1 1947.51 4200.43 1940.01 4200.43 1921.81V1910.38C4200.43 1892.54 4187.58 1884.86 4171.69 1893.96L4027.65 1977.14C4019.31 1982.61 4012.37 1989.97 4007.41 1998.62C4002.45 2007.27 3999.6 2016.98 3999.09 2026.94Z" fill="#38BB3D"/>
<path d="M4092.98 2545.45V2574.19C4092.98 2587.94 4102.62 2593.47 4114.4 2586.69L4474.24 2377.85C4480.47 2373.74 4485.66 2368.22 4489.38 2361.74C4493.09 2355.26 4495.25 2348.01 4495.66 2340.55V2312.7C4495.66 2298.96 4486.02 2293.43 4474.24 2300.39L4114.4 2508.15C4108.16 2512.26 4102.98 2517.78 4099.26 2524.26C4095.54 2530.74 4093.39 2538 4092.98 2545.45Z" fill="#E0E0E0"/>
<path d="M3331.71 3286.19V3722.43C3331.71 3740.27 3344.57 3748.13 3360.45 3739.03L3840.06 3462.01C3848.32 3456.65 3855.22 3449.44 3860.2 3440.95C3865.19 3432.46 3868.13 3422.92 3868.79 3413.1V3054.33C3868.79 3036.48 3855.94 3028.81 3840.06 3037.91L3561.79 3198.55C3545.9 3207.66 3533.05 3200.34 3533.05 3182.13V3170.71C3533.05 3152.86 3520.38 3145.01 3504.49 3154.11L3360.45 3237.29C3352.19 3242.65 3345.29 3249.86 3340.3 3258.34C3335.32 3266.83 3332.38 3276.37 3331.71 3286.19Z" fill="#38BB3D"/>
<path d="M3426.14 3804.71V3832.73C3426.14 3846.3 3435.77 3851.83 3447.55 3845.05L3807.39 3637.29C3813.61 3633.2 3818.79 3627.71 3822.51 3621.27C3826.23 3614.82 3828.39 3607.59 3828.81 3600.16V3572.14C3828.81 3558.57 3819.17 3553.04 3807.39 3559.82L3447.55 3767.58C3441.31 3771.65 3436.12 3777.13 3432.4 3783.58C3428.68 3790.03 3426.53 3797.27 3426.14 3804.71Z" fill="#E0E0E0"/>
<path d="M3999.09 2903.15V3339.38C3999.09 3357.23 4011.94 3365.09 4027.65 3355.98L4507.26 3078.96C4515.61 3073.57 4522.56 3066.28 4527.56 3057.69C4532.55 3049.1 4535.44 3039.45 4535.99 3029.52V2670.76C4535.99 2652.91 4523.14 2645.05 4507.26 2654.16L4228.99 2814.8C4213.1 2823.9 4200.43 2816.4 4200.43 2798.2V2786.78C4200.43 2768.93 4187.58 2761.07 4171.69 2770.35L4027.65 2853.53C4019.32 2858.97 4012.39 2866.3 4007.43 2874.92C4002.47 2883.54 3999.61 2893.22 3999.09 2903.15Z" fill="#38BB3D"/>
<path d="M4092.98 3421.85V3449.69C4092.98 3463.43 4102.62 3468.97 4114.4 3462.01L4474.24 3254.42C4480.47 3250.31 4485.66 3244.79 4489.38 3238.31C4493.09 3231.84 4495.25 3224.58 4495.66 3217.12V3189.27C4495.66 3175.53 4486.02 3170 4474.24 3176.78L4114.4 3384.54C4108.16 3388.66 4102.98 3394.17 4099.26 3400.65C4095.54 3407.13 4093.39 3414.39 4092.98 3421.85Z" fill="#E0E0E0"/>
<path d="M4673.43 1622.83V2059.07C4673.43 2076.92 4686.28 2084.77 4701.99 2075.67L5181.77 1798.65C5190.1 1793.2 5197.02 1785.87 5201.98 1777.25C5206.94 1768.63 5209.8 1758.96 5210.33 1749.03V1390.44C5210.33 1372.59 5197.48 1364.74 5181.77 1373.84L4903.33 1534.48C4887.62 1543.76 4874.77 1536.27 4874.77 1518.06V1506.64C4874.77 1488.79 4861.92 1480.93 4846.03 1490.04L4701.99 1573.39C4693.68 1578.81 4686.77 1586.11 4681.81 1594.7C4676.85 1603.29 4673.98 1612.93 4673.43 1622.83Z" fill="#38BB3D"/>
<path d="M4759.82 2162.41V2190.44C4759.82 2204 4769.46 2209.53 4781.42 2202.75L5141.44 1994.99C5147.72 1990.95 5152.96 1985.48 5156.71 1979.03C5160.47 1972.57 5162.63 1965.32 5163.03 1957.86V1930.02C5163.03 1916.27 5153.39 1910.74 5141.44 1917.52L4781.78 2125.29C4775.43 2129.28 4770.12 2134.73 4766.3 2141.19C4762.48 2147.65 4760.26 2154.92 4759.82 2162.41Z" fill="#E0E0E0"/>
<path d="M5332.42 1261.03V1697.27C5332.42 1715.11 5345.27 1722.79 5361.16 1713.69L5840.76 1436.85C5849.08 1431.4 5856.01 1424.07 5860.97 1415.45C5865.93 1406.83 5868.79 1397.16 5869.32 1387.23V1028.46C5869.32 1010.61 5856.65 1002.76 5840.76 1011.86L5562.5 1172.5C5546.61 1181.61 5533.76 1174.11 5533.76 1155.9V1144.48C5533.76 1126.63 5521.09 1118.95 5505.2 1128.06L5361.16 1211.23C5352.76 1216.66 5345.77 1224.01 5340.78 1232.67C5335.78 1241.32 5332.92 1251.05 5332.42 1261.03Z" fill="#38BB3D"/>
<path d="M5427.02 1779.55V1806.68C5427.02 1820.42 5436.48 1825.96 5448.44 1819.17L5808.28 1611.41C5814.49 1607.32 5819.66 1601.83 5823.38 1595.38C5827.1 1588.94 5829.26 1581.71 5829.7 1574.29V1546.26C5829.7 1532.52 5820.06 1526.99 5808.28 1533.95L5448.44 1741.53C5442.09 1745.69 5436.83 1751.32 5433.1 1757.93C5429.38 1764.55 5427.29 1771.96 5427.02 1779.55Z" fill="#E0E0E0"/>
<path d="M4759.82 3038.27V3066.29C4759.82 3079.86 4769.46 3085.39 4781.42 3078.61L5141.44 2871.02C5147.72 2866.99 5152.96 2861.52 5156.71 2855.06C5160.47 2848.61 5162.63 2841.35 5163.03 2833.9V2806.23C5163.03 2792.67 5153.39 2787.13 5141.44 2793.91L4781.78 3001.68C4775.5 3005.62 4770.23 3010.99 4766.42 3017.35C4762.6 3023.7 4760.34 3030.87 4759.82 3038.27Z" fill="#E0E0E0"/>
<path d="M4768.93 2425.33L5141.44 2209.89C5158.39 2200.07 5172.31 2208.11 5172.31 2227.74V2658.62C5171.74 2669.34 5168.64 2679.78 5163.27 2689.08C5157.91 2698.38 5150.43 2706.29 5141.44 2712.17L4768.93 2927.6C4751.08 2937.42 4738.05 2929.57 4738.05 2909.76V2478.88C4738.64 2468.16 4741.74 2457.73 4747.11 2448.43C4752.47 2439.12 4759.94 2431.21 4768.93 2425.33Z" fill="#FAFAFA"/>
<path d="M4755 2940.81C4750.63 2940.85 4746.32 2939.75 4742.51 2937.6C4737.99 2934.58 4734.36 2930.41 4732.01 2925.51C4729.65 2920.61 4728.65 2915.17 4729.12 2909.76V2478.88C4729.74 2466.56 4733.31 2454.57 4739.52 2443.92C4745.73 2433.27 4754.41 2424.26 4764.82 2417.66L5138.04 2202.22C5142.49 2199.12 5147.69 2197.28 5153.1 2196.91C5158.5 2196.53 5163.91 2197.62 5168.74 2200.07C5173.26 2203.07 5176.89 2207.21 5179.27 2212.07C5181.66 2216.93 5182.71 2222.34 5182.31 2227.74V2658.62C5181.69 2670.93 5178.12 2682.92 5171.91 2693.57C5165.7 2704.23 5157.02 2713.23 5146.61 2719.84L4773.39 2935.46C4767.83 2938.81 4761.49 2940.66 4755 2940.81ZM5155.89 2214.71C5152.58 2214.84 5149.36 2215.89 5146.61 2217.75L4773.39 2433.18C4765.73 2438.22 4759.36 2444.97 4754.77 2452.91C4750.19 2460.84 4747.52 2469.73 4746.97 2478.88V2909.76C4746.97 2916 4748.58 2920.46 4751.43 2922.07C4753.62 2922.79 4755.94 2922.97 4758.21 2922.6C4760.48 2922.22 4762.62 2921.31 4764.46 2919.93L5137.69 2704.49C5145.32 2699.38 5151.67 2692.59 5156.25 2684.64C5160.83 2676.68 5163.52 2667.78 5164.1 2658.62V2227.74C5164.37 2225.47 5164.09 2223.16 5163.29 2221.02C5162.48 2218.87 5161.17 2216.95 5159.46 2215.42C5158.35 2214.9 5157.12 2214.65 5155.89 2214.71Z" fill="#EBEBEB"/>
<path d="M5186.06 2268.08L5102.88 2316.09C5093.86 2321.95 5086.34 2329.85 5080.94 2339.15C5075.55 2348.46 5072.42 2358.9 5071.82 2369.64V2465.67C5071.82 2485.48 5085.75 2493.51 5102.88 2483.52L5186.06 2435.5C5195.05 2429.63 5202.53 2421.72 5207.9 2412.42C5213.26 2403.12 5216.36 2392.68 5216.94 2381.96V2285.93C5216.94 2266.3 5203.02 2258.26 5186.06 2268.08Z" fill="#38BB3D"/>
<path d="M4797.31 2471.92L4984.36 2364.82C4992.75 2360 4999.71 2363.93 4999.71 2373.93V2379.82C4999.4 2385.16 4997.85 2390.36 4995.19 2395.01C4992.52 2399.65 4988.82 2403.62 4984.36 2406.59L4797.31 2513.68C4788.74 2518.68 4781.78 2514.76 4781.95 2504.76V2498.69C4782.23 2493.34 4783.76 2488.12 4786.43 2483.47C4789.09 2478.82 4792.82 2474.86 4797.31 2471.92Z" fill="#EBEBEB"/>
<path d="M4797.31 2556.34L4984.36 2449.25C4992.75 2444.25 4999.71 2448.36 4999.71 2458.17V2464.06C4999.44 2469.42 4997.91 2474.63 4995.24 2479.29C4992.57 2483.94 4988.85 2487.9 4984.36 2490.84L4797.31 2597.93C4788.74 2602.93 4781.78 2597.93 4781.95 2589.01V2582.76C4782.28 2577.47 4783.84 2572.32 4786.51 2567.74C4789.17 2563.15 4792.87 2559.25 4797.31 2556.34Z" fill="#EBEBEB"/>
<path d="M4797.31 2639.16L4984.36 2532.07C4992.75 2527.25 4999.71 2531.18 4999.71 2540.99V2547.06C4999.4 2552.41 4997.85 2557.61 4995.19 2562.25C4992.52 2566.9 4988.82 2570.86 4984.36 2573.84L4797.31 2680.93C4788.74 2685.93 4781.78 2682 4781.95 2672.01V2665.94C4782.21 2660.58 4783.74 2655.36 4786.41 2650.7C4789.08 2646.05 4792.81 2642.09 4797.31 2639.16Z" fill="#EBEBEB"/>
<path d="M4797.31 2722.7L5107.88 2544.21C5116.45 2539.39 5123.41 2544.21 5123.41 2553.13V2559.2C5123.1 2564.57 5121.54 2569.79 5118.84 2574.44C5116.14 2579.09 5112.39 2583.04 5107.88 2585.97L4797.31 2764.46C4788.74 2769.28 4781.78 2765.36 4781.95 2755.54V2749.29C4782.25 2743.97 4783.8 2738.79 4786.47 2734.17C4789.13 2729.55 4792.84 2725.62 4797.31 2722.7Z" fill="#EBEBEB"/>
<path d="M4797.31 2806.23L5107.88 2627.74C5116.45 2622.74 5123.41 2627.74 5123.41 2636.66V2642.55C5123.12 2647.93 5121.56 2653.15 5118.86 2657.8C5116.16 2662.46 5112.4 2666.41 5107.88 2669.33L4797.31 2847.82C4788.74 2852.82 4781.78 2848.71 4781.95 2838.89V2832.83C4782.21 2827.49 4783.74 2822.3 4786.41 2817.67C4789.08 2813.04 4792.81 2809.12 4797.31 2806.23Z" fill="#EBEBEB"/>
<path d="M5412.38 2661.83V2689.68C5412.38 2703.42 5422.02 2708.95 5433.8 2702.17L5793.64 2494.41C5799.9 2490.31 5805.1 2484.8 5808.82 2478.32C5812.54 2471.84 5814.68 2464.57 5815.06 2457.1V2429.26C5815.06 2415.51 5805.6 2409.98 5793.64 2416.76L5433.8 2624.53C5427.57 2628.64 5422.38 2634.16 5418.66 2640.64C5414.95 2647.11 5412.79 2654.37 5412.38 2661.83Z" fill="#E0E0E0"/>
<path d="M5421.49 2048.71L5794.53 1833.28C5812.38 1823.28 5825.59 1831.31 5825.59 1851.12V2282C5824.96 2292.74 5821.83 2303.17 5816.43 2312.47C5811.04 2321.77 5803.54 2329.68 5794.53 2335.55L5421.49 2550.99C5403.64 2560.81 5390.43 2552.77 5390.43 2533.14V2102.26C5391.02 2091.52 5394.13 2081.07 5399.53 2071.76C5404.93 2062.45 5412.45 2054.56 5421.49 2048.71Z" fill="#FAFAFA"/>
<path d="M5407.57 2564.02C5403.19 2564.06 5398.88 2562.95 5395.07 2560.81C5390.56 2557.81 5386.93 2553.67 5384.54 2548.81C5382.16 2543.95 5381.11 2538.54 5381.51 2533.14V2102.26C5382.1 2089.92 5385.65 2077.89 5391.87 2067.21C5398.08 2056.52 5406.77 2047.48 5417.2 2040.86L5790.25 1825.42C5794.6 1822.02 5799.86 1819.99 5805.37 1819.61C5810.88 1819.22 5816.38 1820.49 5821.16 1823.25C5825.94 1826.02 5829.78 1830.15 5832.19 1835.12C5834.61 1840.08 5835.48 1845.66 5834.7 1851.12V2282C5834.09 2294.32 5830.53 2306.31 5824.32 2316.97C5818.1 2327.62 5809.42 2336.63 5799 2343.22L5425.95 2558.66C5420.39 2562.02 5414.06 2563.86 5407.57 2564.02ZM5425.42 2056.39C5417.72 2061.45 5411.32 2068.22 5406.7 2076.18C5402.08 2084.15 5399.39 2093.08 5398.82 2102.26V2533.14C5398.55 2535.41 5398.83 2537.72 5399.64 2539.86C5400.44 2542.01 5401.76 2543.92 5403.46 2545.45C5405.65 2546.18 5407.99 2546.35 5410.27 2545.94C5412.54 2545.54 5414.68 2544.57 5416.49 2543.13L5789.54 2327.7C5797.21 2322.67 5803.61 2315.92 5808.23 2307.99C5812.85 2300.06 5815.55 2291.16 5816.13 2282V1851.12C5817.1 1848.79 5817.18 1846.19 5816.37 1843.8C5815.55 1841.42 5813.89 1839.41 5811.7 1838.16C5809.51 1836.91 5806.93 1836.5 5804.46 1837.02C5801.99 1837.53 5799.79 1838.93 5798.28 1840.95L5425.42 2056.39Z" fill="#EBEBEB"/>
<path d="M5838.44 1891.46L5755.27 1939.48C5746.28 1945.35 5738.79 1953.26 5733.43 1962.56C5728.06 1971.87 5724.97 1982.3 5724.39 1993.03V2089.05C5724.39 2108.69 5738.31 2116.72 5755.27 2106.9L5838.44 2058.89C5847.45 2053.02 5854.95 2045.11 5860.34 2035.81C5865.74 2026.51 5868.87 2016.07 5869.5 2005.34V1909.31C5869.5 1889.5 5855.4 1881.47 5838.44 1891.46Z" fill="#38BB3D"/>
<path d="M5449.87 2095.12L5636.75 1988.03C5645.32 1983.03 5652.28 1988.03 5652.28 1996.95V2003.02C5652.01 2008.4 5650.47 2013.64 5647.76 2018.29C5645.06 2022.95 5641.29 2026.9 5636.75 2029.79L5449.87 2136.89C5441.3 2141.89 5434.34 2137.78 5434.34 2127.96V2121.72C5434.67 2116.38 5436.25 2111.2 5438.95 2106.58C5441.65 2101.96 5445.38 2098.04 5449.87 2095.12Z" fill="#EBEBEB"/>
<path d="M5449.87 2178.84L5636.75 2071.74C5645.32 2066.92 5652.28 2071.74 5652.28 2080.67V2086.73C5651.97 2092.1 5650.41 2097.32 5647.71 2101.97C5645.01 2106.62 5641.26 2110.58 5636.75 2113.51L5449.87 2220.6C5441.3 2225.6 5434.34 2221.67 5434.34 2211.68V2205.61C5434.63 2200.24 5436.19 2195.01 5438.89 2190.36C5441.59 2185.7 5445.35 2181.76 5449.87 2178.84Z" fill="#EBEBEB"/>
<path d="M5449.87 2262.37L5636.75 2155.27C5645.32 2150.28 5652.28 2155.27 5652.28 2164.2V2170.09C5651.98 2175.46 5650.43 2180.69 5647.73 2185.34C5645.03 2189.99 5641.27 2193.94 5636.75 2196.86L5449.87 2303.96C5441.3 2308.78 5434.34 2304.85 5434.34 2295.03V2288.61C5434.73 2283.33 5436.33 2278.22 5439.03 2273.67C5441.72 2269.11 5445.43 2265.25 5449.87 2262.37Z" fill="#EBEBEB"/>
<path d="M5449.87 2346.08L5760.44 2167.59C5769.01 2162.59 5775.97 2166.7 5775.97 2176.51V2181.51C5775.66 2186.88 5774.1 2192.1 5771.4 2196.75C5768.7 2201.4 5764.95 2205.35 5760.44 2208.29L5449.87 2386.78C5441.3 2391.77 5434.34 2387.67 5434.34 2377.85V2371.78C5434.77 2366.59 5436.39 2361.57 5439.09 2357.11C5441.78 2352.65 5445.47 2348.87 5449.87 2346.08Z" fill="#EBEBEB"/>
<path d="M5449.87 2429.61L5760.44 2251.12C5769.01 2246.3 5775.97 2250.23 5775.97 2260.05V2266.12C5775.66 2271.48 5774.1 2276.71 5771.4 2281.36C5768.7 2286.01 5764.95 2289.96 5760.44 2292.89L5449.87 2471.38C5441.3 2476.2 5434.34 2472.27 5434.34 2462.46V2456.21C5434.67 2450.87 5436.25 2445.69 5438.95 2441.07C5441.65 2436.45 5445.38 2432.53 5449.87 2429.61Z" fill="#EBEBEB"/>
<path d="M4759.82 3927.69V3955.71C4759.82 3969.28 4769.46 3974.81 4781.42 3968.03L5141.44 3760.27C5147.72 3756.23 5152.96 3750.76 5156.71 3744.31C5160.47 3737.85 5162.63 3730.6 5163.03 3723.14V3695.12C5163.03 3681.55 5153.39 3676.02 5141.44 3682.8L4781.78 3890.56C4775.43 3894.56 4770.12 3900.01 4766.3 3906.47C4762.48 3912.93 4760.26 3920.2 4759.82 3927.69Z" fill="#E0E0E0"/>
<path d="M4768.93 3314.57L5141.44 3099.13C5158.39 3089.32 5172.32 3097.35 5172.32 3116.98V3547.86C5171.71 3558.58 5168.6 3569 5163.24 3578.3C5157.87 3587.6 5150.41 3595.51 5141.44 3601.41L4768.21 3816.85C4750.36 3826.66 4737.33 3818.81 4737.33 3799V3368.12C4737.98 3357.33 4741.18 3346.85 4746.67 3337.54C4752.16 3328.23 4759.79 3320.35 4768.93 3314.57Z" fill="#FAFAFA"/>
<path d="M4755 3830.05C4750.63 3830.1 4746.32 3828.99 4742.51 3826.84C4738.01 3823.8 4734.41 3819.62 4732.06 3814.73C4729.71 3809.83 4728.69 3804.41 4729.12 3799V3368.12C4729.74 3355.8 4733.31 3343.82 4739.52 3333.16C4745.73 3322.51 4754.41 3313.5 4764.82 3306.9L5137.69 3091.82C5142.03 3088.49 5147.25 3086.52 5152.71 3086.17C5158.16 3085.81 5163.6 3087.08 5168.34 3089.81C5173.07 3092.54 5176.89 3096.61 5179.32 3101.51C5181.74 3106.41 5182.66 3111.92 5181.95 3117.34V3548.22C5181.33 3560.53 5177.77 3572.52 5171.55 3583.17C5165.34 3593.83 5156.67 3602.83 5146.26 3609.44L4773.03 3824.88C4767.55 3828.1 4761.35 3829.88 4755 3830.05ZM5155.89 3103.77C5152.59 3103.98 5149.4 3105.02 5146.61 3106.81L4773.39 3322.43C4765.72 3327.45 4759.34 3334.2 4754.76 3342.14C4750.17 3350.07 4747.5 3358.97 4746.97 3368.12V3799C4746 3801.33 4745.92 3803.93 4746.74 3806.32C4747.55 3808.71 4749.21 3810.71 4751.4 3811.96C4753.6 3813.21 4756.17 3813.62 4758.64 3813.1C4761.11 3812.59 4763.31 3811.19 4764.82 3809.17L5138.04 3593.73C5145.67 3588.63 5152.02 3581.83 5156.61 3573.88C5161.19 3565.92 5163.87 3557.02 5164.46 3547.86V3116.98C5164.73 3114.71 5164.45 3112.4 5163.64 3110.26C5162.84 3108.11 5161.53 3106.2 5159.82 3104.67C5158.62 3104.02 5157.26 3103.71 5155.89 3103.77Z" fill="#EBEBEB"/>
<path d="M5186.06 3157.32L5102.88 3205.34C5093.86 3211.19 5086.34 3219.09 5080.94 3228.39C5075.55 3237.7 5072.42 3248.14 5071.82 3258.88V3354.91C5071.82 3374.72 5085.75 3382.58 5102.88 3372.76L5186.06 3324.75C5195.05 3318.87 5202.53 3310.97 5207.9 3301.66C5213.26 3292.36 5216.36 3281.92 5216.94 3271.2V3175.17C5216.94 3155.54 5203.02 3147.51 5186.06 3157.32Z" fill="#38BB3D"/>
<path d="M4797.31 3361.16L4984.36 3254.06C4992.75 3249.25 4999.71 3253.17 4999.71 3262.99V3269.06C4999.4 3274.4 4997.85 3279.6 4995.19 3284.25C4992.52 3288.9 4988.82 3292.86 4984.36 3295.83L4797.31 3402.93C4788.74 3407.92 4781.78 3404 4781.95 3394V3387.93C4782.21 3382.57 4783.74 3377.35 4786.41 3372.7C4789.08 3368.04 4792.81 3364.09 4797.31 3361.16Z" fill="#EBEBEB"/>
<path d="M4797.31 3444.69L4984.36 3337.6C4992.75 3332.6 4999.71 3336.71 4999.71 3346.52V3352.41C4999.43 3357.77 4997.89 3362.98 4995.22 3367.63C4992.56 3372.28 4988.84 3376.24 4984.36 3379.19L4797.31 3486.28C4788.74 3491.1 4781.78 3487.17 4781.95 3477.36V3471.11C4782.28 3465.82 4783.84 3460.67 4786.51 3456.09C4789.17 3451.5 4792.87 3447.6 4797.31 3444.69Z" fill="#EBEBEB"/>
<path d="M4797.31 3528.41L4984.36 3421.31C4992.75 3416.49 4999.71 3420.42 4999.71 3430.24V3436.3C4999.4 3441.65 4997.85 3446.85 4995.19 3451.5C4992.52 3456.14 4988.82 3460.11 4984.36 3463.08L4797.31 3570.17C4788.74 3575.17 4781.78 3571.06 4781.95 3561.25V3555.89C4782.07 3550.41 4783.53 3545.03 4786.21 3540.24C4788.88 3535.45 4792.69 3531.38 4797.31 3528.41Z" fill="#EBEBEB"/>
<path d="M4797.31 3611.94L5107.88 3433.45C5116.45 3428.63 5123.41 3432.56 5123.41 3442.37V3448.8C5123.1 3454.17 5121.54 3459.39 5118.84 3464.04C5116.14 3468.69 5112.39 3472.64 5107.88 3475.57L4797.31 3654.06C4788.74 3658.88 4781.78 3654.96 4781.95 3645.14V3638.89C4782.2 3633.5 4783.72 3628.25 4786.39 3623.57C4789.06 3618.88 4792.8 3614.9 4797.31 3611.94Z" fill="#EBEBEB"/>
<path d="M4797.31 3695.65L5107.88 3517.16C5116.45 3512.16 5123.41 3516.09 5123.41 3526.09V3531.98C5123.1 3537.34 5121.54 3542.56 5118.84 3547.22C5116.14 3551.87 5112.39 3555.82 5107.88 3558.75L4797.31 3737.24C4788.74 3742.24 4781.78 3738.13 4781.95 3728.32V3722.25C4782.21 3716.91 4783.74 3711.72 4786.41 3707.09C4789.08 3702.46 4792.81 3698.54 4797.31 3695.65Z" fill="#EBEBEB"/>
<path d="M5412.38 3550.89V3578.92C5412.38 3592.66 5422.02 3598.2 5433.8 3591.23L5793.64 3383.65C5799.9 3379.56 5805.1 3374.04 5808.82 3367.56C5812.54 3361.08 5814.68 3353.81 5815.06 3346.34V3318.5C5815.06 3304.76 5805.6 3299.22 5793.64 3306.01L5433.8 3513.77C5427.59 3517.87 5422.42 3523.35 5418.7 3529.8C5414.99 3536.24 5412.82 3543.47 5412.38 3550.89Z" fill="#E0E0E0"/>
<path d="M5421.49 2937.96L5794.53 2722.52C5812.38 2712.52 5825.59 2720.55 5825.59 2740.37V3171.07C5825.01 3181.81 5821.89 3192.26 5816.49 3201.57C5811.09 3210.87 5803.57 3218.77 5794.53 3224.61L5421.49 3440.23C5403.64 3450.05 5390.43 3442.02 5390.43 3422.38V2991.5C5391.02 2980.76 5394.13 2970.31 5399.53 2961C5404.93 2951.7 5412.45 2943.8 5421.49 2937.96Z" fill="#FAFAFA"/>
<path d="M5407.57 3453.26C5403.19 3453.3 5398.88 3452.19 5395.07 3450.05C5390.56 3447.05 5386.93 3442.91 5384.54 3438.05C5382.16 3433.19 5381.11 3427.78 5381.51 3422.38V2991.5C5382.09 2979.15 5385.63 2967.13 5391.85 2956.44C5398.06 2945.75 5406.76 2936.72 5417.2 2930.1L5790.25 2714.66C5794.6 2711.26 5799.86 2709.23 5805.37 2708.85C5810.88 2708.46 5816.38 2709.73 5821.16 2712.5C5825.94 2715.26 5829.78 2719.39 5832.19 2724.36C5834.61 2729.33 5835.48 2734.9 5834.7 2740.37V3171.07C5834.12 3183.42 5830.57 3195.44 5824.36 3206.13C5818.14 3216.82 5809.44 3225.85 5799 3232.47L5425.95 3448.8C5420.31 3451.84 5413.98 3453.38 5407.57 3453.26ZM5425.42 2945.63C5417.72 2950.69 5411.32 2957.47 5406.7 2965.43C5402.08 2973.39 5399.39 2982.32 5398.82 2991.5V3422.38C5398.52 3424.63 5398.78 3426.92 5399.59 3429.04C5400.4 3431.16 5401.73 3433.05 5403.46 3434.52C5405.64 3435.28 5407.97 3435.49 5410.25 3435.11C5412.53 3434.74 5414.67 3433.8 5416.49 3432.38L5790.07 3216.76C5797.76 3211.7 5804.17 3204.93 5808.79 3196.96C5813.4 3189 5816.1 3180.07 5816.67 3170.89V2740.37C5817.64 2738.04 5817.72 2735.43 5816.9 2733.05C5816.09 2730.66 5814.43 2728.65 5812.23 2727.4C5810.04 2726.15 5807.47 2725.75 5805 2726.26C5802.53 2726.77 5800.33 2728.17 5798.82 2730.19L5425.42 2945.63Z" fill="#EBEBEB"/>
<path d="M5838.44 2780.71L5755.27 2828.72C5746.28 2834.59 5738.79 2842.5 5733.43 2851.8C5728.06 2861.11 5724.97 2871.54 5724.39 2882.27V2978.3C5724.39 2997.93 5738.31 3005.96 5755.27 2996.15L5838.44 2948.13C5847.45 2942.26 5854.95 2934.35 5860.34 2925.05C5865.74 2915.75 5868.87 2905.32 5869.5 2894.58V2798.56C5869.5 2778.74 5855.4 2770.53 5838.44 2780.71Z" fill="#38BB3D"/>
<path d="M5449.87 2984.72L5636.75 2877.63C5645.32 2872.63 5652.28 2876.73 5652.28 2886.55V2892.44C5651.98 2897.81 5650.43 2903.04 5647.73 2907.69C5645.03 2912.35 5641.27 2916.29 5636.75 2919.22L5449.87 3026.31C5441.3 3031.13 5434.34 3026.31 5434.34 3017.39V3011.14C5434.7 3005.83 5436.29 3000.68 5438.99 2996.1C5441.68 2991.51 5445.41 2987.62 5449.87 2984.72Z" fill="#EBEBEB"/>
<path d="M5449.87 3068.08L5636.75 2960.98C5645.32 2956.16 5652.28 2960.98 5652.28 2969.91V2975.98C5651.97 2981.34 5650.41 2986.56 5647.71 2991.22C5645.01 2995.87 5641.26 2999.82 5636.75 3002.75L5449.87 3109.84C5441.3 3114.84 5434.34 3110.74 5434.34 3100.92V3094.85C5434.6 3089.47 5436.15 3084.24 5438.85 3079.58C5441.55 3074.92 5445.33 3070.98 5449.87 3068.08Z" fill="#EBEBEB"/>
<path d="M5449.87 3151.61L5636.75 3044.52C5645.32 3039.52 5652.28 3043.45 5652.28 3053.44V3059.33C5651.97 3064.7 5650.41 3069.92 5647.71 3074.57C5645.01 3079.22 5641.26 3083.17 5636.75 3086.1L5449.87 3193.2C5441.3 3198.02 5434.34 3194.09 5434.34 3184.27V3178.03C5434.7 3172.72 5436.29 3167.57 5438.99 3162.99C5441.68 3158.4 5445.41 3154.51 5449.87 3151.61Z" fill="#EBEBEB"/>
<path d="M5449.87 3234.61L5760.44 3056.12C5769.01 3051.12 5775.97 3055.05 5775.97 3065.04V3070.93C5775.66 3076.3 5774.1 3081.52 5771.4 3086.17C5768.7 3090.82 5764.95 3094.77 5760.44 3097.71L5449.87 3276.2C5441.3 3281.19 5434.34 3277.09 5434.34 3267.27V3261.2C5434.63 3255.86 5436.19 3250.66 5438.89 3246.03C5441.59 3241.41 5445.35 3237.49 5449.87 3234.61Z" fill="#EBEBEB"/>
<path d="M5449.87 3318.86L5760.44 3140.37C5769.01 3135.37 5775.97 3139.47 5775.97 3149.29V3155.18C5775.71 3160.56 5774.16 3165.8 5771.46 3170.45C5768.76 3175.11 5764.98 3179.05 5760.44 3181.95L5449.87 3360.44C5441.3 3365.26 5434.34 3361.34 5434.34 3351.52V3345.27C5434.7 3339.97 5436.29 3334.82 5438.99 3330.23C5441.68 3325.65 5445.41 3321.75 5449.87 3318.86Z" fill="#EBEBEB"/>
<path d="M3426.14 4698.24V4726.08C3426.14 4739.82 3435.77 4745.36 3447.73 4738.58L3807.39 4530.81C3813.67 4526.77 3818.89 4521.29 3822.65 4514.84C3826.4 4508.39 3828.58 4501.14 3828.99 4493.69V4466.2C3828.99 4452.45 3819.35 4446.92 3807.39 4453.88L3447.73 4661.47C3441.53 4665.5 3436.34 4670.92 3432.59 4677.3C3428.84 4683.68 3426.63 4690.85 3426.14 4698.24Z" fill="#E0E0E0"/>
<path d="M3435.24 4085.12L3808.46 3869.68C3826.31 3859.86 3839.34 3867.72 3839.34 3887.53V4318.41C3838.72 4329.12 3835.61 4339.54 3830.25 4348.84C3824.88 4358.13 3817.43 4366.05 3808.46 4371.95L3435.24 4587.39C3417.39 4597.21 3404.36 4589.18 3404.36 4569.54V4138.67C3404.91 4127.94 3408 4117.49 3413.36 4108.18C3418.73 4098.87 3426.23 4090.97 3435.24 4085.12Z" fill="#FAFAFA"/>
<path d="M3421.32 4600.42C3416.94 4600.46 3412.63 4599.36 3408.82 4597.21C3404.33 4594.21 3400.72 4590.06 3398.37 4585.2C3396.01 4580.33 3395 4574.93 3395.44 4569.54V4138.67C3396.06 4126.35 3399.62 4114.36 3405.83 4103.71C3412.05 4093.06 3420.72 4084.05 3431.13 4077.44L3804.36 3862.01C3808.68 3858.59 3813.92 3856.54 3819.41 3856.14C3824.9 3855.73 3830.39 3856.99 3835.16 3859.74C3839.93 3862.49 3843.76 3866.61 3846.16 3871.56C3848.56 3876.52 3849.42 3882.08 3848.63 3887.53V4318.41C3848 4330.72 3844.44 4342.71 3838.23 4353.36C3832.01 4364.01 3823.34 4373.02 3812.93 4379.63L3439.7 4595.07C3434.14 4598.42 3427.81 4600.27 3421.32 4600.42ZM3439.7 4092.79C3432.04 4097.87 3425.67 4104.66 3421.09 4112.62C3416.5 4120.58 3413.83 4129.5 3413.29 4138.67V4569.54C3412.32 4571.87 3412.23 4574.48 3413.05 4576.86C3413.87 4579.25 3415.53 4581.26 3417.72 4582.51C3419.91 4583.76 3422.48 4584.16 3424.95 4583.65C3427.43 4583.14 3429.62 4581.74 3431.13 4579.72L3804.36 4364.1C3811.98 4359.03 3818.34 4352.27 3822.92 4344.35C3827.5 4336.42 3830.19 4327.54 3830.78 4318.41V3887.53C3831.74 3885.2 3831.83 3882.6 3831.01 3880.21C3830.19 3877.82 3828.53 3875.81 3826.34 3874.56C3824.15 3873.31 3821.58 3872.91 3819.11 3873.42C3816.64 3873.94 3814.44 3875.34 3812.93 3877.36L3439.7 4092.79Z" fill="#EBEBEB"/>
<path d="M3852.37 3927.87L3769.2 3975.88C3760.16 3981.72 3752.64 3989.62 3747.24 3998.93C3741.84 4008.24 3738.72 4018.69 3738.14 4029.43V4125.46C3738.14 4145.09 3752.06 4153.12 3769.2 4143.31L3852.37 4095.29C3861.34 4089.4 3868.81 4081.49 3874.17 4072.19C3879.54 4062.89 3882.64 4052.46 3883.25 4041.75V3945.72C3883.25 3925.9 3869.33 3918.05 3852.37 3927.87Z" fill="#38BB3D"/>
<path d="M3463.62 4131.71L3650.68 4024.61C3659.07 4019.61 3666.03 4023.72 3666.03 4033.54V4039.43C3665.76 4044.78 3664.22 4050 3661.56 4054.65C3658.89 4059.3 3655.16 4063.26 3650.68 4066.2L3463.62 4173.29C3455.05 4178.29 3448.27 4173.29 3448.27 4164.37V4158.3C3448.53 4152.97 3450.05 4147.77 3452.72 4143.14C3455.39 4138.52 3459.13 4134.6 3463.62 4131.71Z" fill="#EBEBEB"/>
<path d="M3463.62 4215.24L3650.68 4108.15C3659.07 4103.33 3666.03 4107.25 3666.03 4117.25V4123.14C3665.71 4128.48 3664.16 4133.68 3661.5 4138.33C3658.84 4142.98 3655.13 4146.94 3650.68 4149.91L3463.62 4257.01C3455.05 4261.83 3448.27 4257.01 3448.27 4248.08V4241.83C3448.57 4236.51 3450.11 4231.33 3452.78 4226.71C3455.45 4222.09 3459.16 4218.16 3463.62 4215.24Z" fill="#EBEBEB"/>
<path d="M3463.62 4298.95L3650.68 4191.86C3659.07 4186.86 3666.03 4190.96 3666.03 4200.78V4206.67C3665.76 4212.03 3664.22 4217.24 3661.56 4221.89C3658.89 4226.55 3655.16 4230.5 3650.68 4233.44L3463.62 4341.25C3455.05 4346.25 3448.27 4341.25 3448.27 4332.33V4326.08C3448.44 4320.66 3449.93 4315.35 3452.6 4310.63C3455.28 4305.9 3459.06 4301.89 3463.62 4298.95Z" fill="#EBEBEB"/>
<path d="M3463.62 4382.48L3774.19 4203.99C3782.76 4199 3789.72 4203.99 3789.72 4212.92V4218.81C3789.46 4224.19 3787.91 4229.42 3785.21 4234.08C3782.51 4238.74 3778.73 4242.68 3774.19 4245.58L3463.62 4424.07C3455.05 4429.07 3448.27 4425.14 3448.27 4415.15V4409.08C3448.57 4403.75 3450.11 4398.58 3452.78 4393.96C3455.45 4389.34 3459.16 4385.41 3463.62 4382.48Z" fill="#EBEBEB"/>
<path d="M3463.62 4466.2L3774.19 4287.71C3782.76 4282.89 3789.72 4287.71 3789.72 4296.63V4302.7C3789.42 4308.07 3787.85 4313.29 3785.15 4317.94C3782.46 4322.59 3778.7 4326.54 3774.19 4329.47L3463.62 4507.96C3455.05 4512.78 3448.27 4508.86 3448.27 4499.04V4492.79C3448.57 4487.47 3450.11 4482.29 3452.78 4477.67C3455.45 4473.05 3459.16 4469.12 3463.62 4466.2Z" fill="#EBEBEB"/>
<path d="M4078.7 4321.44V4349.46C4078.7 4363.03 4088.34 4368.74 4100.12 4361.78L4459.96 4154.02C4466.23 4149.98 4471.44 4144.51 4475.17 4138.05C4478.9 4131.59 4481.02 4124.34 4481.38 4116.89V4089.05C4481.38 4075.3 4471.92 4069.77 4459.96 4076.55L4100.12 4284.32C4093.9 4288.4 4088.72 4293.89 4085 4300.33C4081.28 4306.78 4079.12 4314.01 4078.7 4321.44Z" fill="#E0E0E0"/>
<path d="M4088.34 3708.32L4461.38 3492.89C4479.23 3483.07 4492.44 3491.1 4492.44 3510.73V3941.61C4491.86 3952.35 4488.74 3962.81 4483.34 3972.11C4477.94 3981.42 4470.42 3989.32 4461.38 3995.16L4088.34 4210.6C4070.49 4220.59 4057.28 4212.56 4057.28 4192.75V3761.87C4057.91 3751.14 4061.04 3740.7 4066.44 3731.4C4071.83 3722.1 4079.33 3714.2 4088.34 3708.32Z" fill="#FAFAFA"/>
<path d="M4073.88 4223.81C4069.51 4223.85 4065.2 4222.74 4061.39 4220.59C4056.87 4217.56 4053.24 4213.39 4050.86 4208.5C4048.48 4203.61 4047.43 4198.17 4047.82 4192.75V3761.87C4048.46 3749.56 4052.03 3737.58 4058.24 3726.93C4064.45 3716.28 4073.12 3707.27 4083.52 3700.65L4456.39 3484.5C4460.72 3481.11 4465.97 3479.09 4471.46 3478.7C4476.94 3478.31 4482.42 3479.57 4487.19 3482.31C4491.97 3485.05 4495.81 3489.15 4498.24 3494.09C4500.67 3499.02 4501.57 3504.57 4500.83 3510.02V3940.9C4500.25 3953.22 4496.71 3965.23 4490.49 3975.89C4484.28 3986.55 4475.58 3995.55 4465.13 4002.12L4092.09 4217.74C4086.65 4221.31 4080.37 4223.41 4073.88 4223.81ZM4474.77 3497.7C4471.39 3497.8 4468.11 3498.85 4465.31 3500.74L4092.27 3716.54C4084.59 3721.56 4078.19 3728.31 4073.57 3736.24C4068.96 3744.17 4066.25 3753.07 4065.67 3762.23V4193.11C4065.35 4195.38 4065.61 4197.7 4066.42 4199.86C4067.23 4202.01 4068.57 4203.92 4070.31 4205.42C4072.49 4206.14 4074.82 4206.32 4077.09 4205.95C4079.36 4205.58 4081.5 4204.66 4083.34 4203.28L4456.39 3987.84C4464.07 3982.78 4470.47 3976 4475.08 3968.04C4479.7 3960.08 4482.4 3951.15 4482.98 3941.97V3510.73C4483.25 3508.46 4482.97 3506.15 4482.17 3504.01C4481.36 3501.87 4480.05 3499.95 4478.34 3498.42C4477.22 3497.91 4476 3497.67 4474.77 3497.7Z" fill="#EBEBEB"/>
<path d="M4504.76 3551.07L4421.58 3599.09C4412.62 3604.99 4405.16 3612.91 4399.8 3622.2C4394.44 3631.5 4391.32 3641.92 4390.7 3652.64V3748.66C4390.7 3768.48 4404.62 3776.51 4421.58 3766.51L4504.76 3718.5C4513.79 3712.66 4521.32 3704.76 4526.71 3695.45C4532.11 3686.15 4535.23 3675.69 4535.82 3664.95V3568.92C4535.82 3549.29 4521.89 3541.26 4504.76 3551.07Z" fill="#38BB3D"/>
<path d="M4116.18 3754.91L4303.06 3647.82C4311.63 3643 4318.59 3646.92 4318.59 3656.92V3662.99C4318.29 3668.36 4316.72 3673.58 4314.02 3678.23C4311.32 3682.88 4307.57 3686.83 4303.06 3689.76L4116.18 3796.86C4107.62 3801.68 4100.65 3797.75 4100.65 3787.75V3781.68C4100.96 3776.32 4102.53 3771.1 4105.22 3766.45C4107.92 3761.79 4111.68 3757.84 4116.18 3754.91Z" fill="#EBEBEB"/>
<path d="M4116.18 3838.62L4303.06 3731.53C4311.63 3726.53 4318.59 3730.64 4318.59 3740.45V3746.34C4318.33 3751.72 4316.78 3756.96 4314.08 3761.62C4311.38 3766.27 4307.6 3770.22 4303.06 3773.12L4116.18 3880.21C4107.62 3885.21 4100.65 3881.1 4100.65 3871.29V3865.04C4100.97 3859.72 4102.55 3854.56 4105.25 3849.97C4107.95 3845.38 4111.69 3841.49 4116.18 3838.62Z" fill="#EBEBEB"/>
<path d="M4116.18 3922.16L4303.06 3815.06C4311.63 3810.24 4318.59 3814.17 4318.59 3823.99V3830.05C4318.29 3835.42 4316.72 3840.64 4314.02 3845.29C4311.32 3849.95 4307.57 3853.9 4303.06 3856.83L4116.18 3963.92C4107.62 3968.92 4100.65 3964.99 4100.65 3955V3948.57C4101.02 3943.27 4102.61 3938.12 4105.3 3933.53C4108 3928.95 4111.72 3925.05 4116.18 3922.16Z" fill="#EBEBEB"/>
<path d="M4116.18 4005.69L4426.76 3827.2C4435.32 3822.38 4442.29 3826.31 4442.29 3836.12V3841.48C4441.98 3846.85 4440.41 3852.07 4437.72 3856.72C4435.02 3861.37 4431.26 3865.32 4426.76 3868.25L4116.18 4046.74C4107.62 4051.56 4100.65 4047.64 4100.65 4037.82V4031.57C4101.1 4026.36 4102.72 4021.32 4105.42 4016.83C4108.11 4012.34 4111.79 4008.53 4116.18 4005.69Z" fill="#EBEBEB"/>
<path d="M4116.18 4089.4L4426.76 3910.91C4435.32 3905.91 4442.29 3910.02 4442.29 3919.84V3925.73C4441.99 3931.1 4440.43 3936.32 4437.74 3940.98C4435.04 3945.63 4431.27 3949.58 4426.76 3952.5L4116.18 4130.99C4107.62 4135.99 4100.65 4130.99 4100.65 4122.07V4116C4100.95 4110.65 4102.51 4105.45 4105.21 4100.82C4107.91 4096.2 4111.67 4092.28 4116.18 4089.4Z" fill="#EBEBEB"/>
<path d="M2389.28 2394.09L2316.81 2351.79V2686.82L2389.28 2728.77V2394.09Z" fill="#38BB3D"/>
<path opacity="0.1" d="M2389.28 2394.09L2316.81 2351.79V2686.82L2389.28 2728.77V2394.09Z" fill="black"/>
<path d="M6671.64 3778.47C6663.38 3774.73 6654.29 3773.22 6645.27 3774.1C6636.25 3774.98 6627.61 3778.21 6620.23 3783.47C6599.17 3797.15 6581.61 3815.58 6568.97 3837.28C6556.32 3858.98 6548.93 3883.34 6547.41 3908.41C6546.45 3917.43 6547.9 3926.53 6551.6 3934.81C6555.3 3943.08 6561.12 3950.24 6568.47 3955.54L7471.99 4526.71C7489.84 4539.2 7516.79 4538.49 7546.24 4521.53C7575.84 4502.37 7600.5 4476.49 7618.21 4446C7635.92 4415.52 7646.18 4381.28 7648.16 4346.07C7648.16 4312.16 7635.67 4288.78 7615.68 4278.96L6671.64 3778.47Z" fill="#38BB3D"/>
<path opacity="0.15" d="M6547.41 3909.13C6547.41 3955.36 6579.72 3974.28 6619.88 3951.25C6640.94 3937.57 6658.5 3919.14 6671.14 3897.44C6683.79 3875.74 6691.17 3851.38 6692.7 3826.31C6692.7 3780.08 6660.39 3761.16 6620.23 3784.18C6599.17 3797.87 6581.61 3816.3 6568.97 3838C6556.32 3859.7 6548.94 3884.06 6547.41 3909.13Z" fill="black"/>
<path d="M6347.5 3658.35C6334.68 3666.65 6324 3677.87 6316.34 3691.08C6308.68 3704.3 6304.25 3719.13 6303.41 3734.39C6302.85 3739.81 6303.72 3745.29 6305.94 3750.27C6308.17 3755.26 6311.67 3759.56 6316.08 3762.77L6588.82 3921.09C6593.77 3923.39 6599.24 3924.32 6604.67 3923.79C6610.1 3923.25 6615.29 3921.27 6619.7 3918.05C6632.65 3909.75 6643.43 3898.47 6651.13 3885.14C6658.83 3871.82 6663.23 3856.85 6663.96 3841.48C6664.6 3836.02 6663.76 3830.49 6661.53 3825.47C6659.3 3820.44 6655.77 3816.11 6651.29 3812.92L6378.56 3654.6C6373.52 3652.4 6367.98 3651.59 6362.52 3652.25C6357.06 3652.91 6351.87 3655.01 6347.5 3658.35Z" fill="#263238"/>
<path opacity="0.1" d="M6653.97 3921.62L7583.55 4492.79C7572.54 4504.22 7560.05 4514.12 7546.42 4522.24C7516.97 4539.2 7490.56 4540.09 7471.99 4527.42L6568.65 3956.25C6576.86 3960.05 6585.94 3961.59 6594.94 3960.71C6603.95 3959.83 6612.55 3956.56 6619.88 3951.25C6632.86 3943.4 6644.39 3933.38 6653.97 3921.62Z" fill="black"/>
<path d="M6809.97 3108.42C6809.97 3100.74 6809.97 3093.42 6808.9 3085.93C6807.83 3078.43 6808.01 3071.11 6807.11 3063.79C6806.22 3056.48 6806.22 3054.16 6805.68 3049.34C6804.44 3036.48 6802.47 3023.99 6800.51 3012.03C6799.44 3006.68 6798.55 3000.96 6797.47 2995.61C6796.4 2990.26 6795.33 2985.44 6794.26 2980.26C6791.05 2966.52 6787.84 2952.95 6783.91 2940.1C6781.77 2934.03 6779.98 2927.78 6777.84 2922.25C6777.49 2921.32 6777.19 2920.36 6776.95 2919.39C6774.63 2913.33 6772.66 2907.61 6770.34 2901.55C6767.93 2894.99 6765.19 2888.55 6762.13 2882.27C6760.19 2877.57 6757.98 2872.98 6755.53 2868.52C6754.25 2865.16 6752.64 2861.93 6750.71 2858.89C6748.93 2854.96 6746.78 2851.03 6744.64 2847.28L6743.03 2844.61C6741.25 2841.22 6739.11 2838 6737.14 2834.61C6735.18 2831.22 6734.29 2830.33 6733.04 2828.19C6723.42 2813.12 6712.68 2798.8 6700.91 2785.35C6698.77 2783.21 6696.81 2780.89 6694.84 2778.74C6692.88 2776.6 6691.45 2775.17 6689.84 2773.39L6683.24 2766.96C6677.16 2760.59 6670.66 2754.62 6663.78 2749.11C6660.67 2746.36 6657.39 2743.8 6653.97 2741.44C6650.58 2738.76 6647.19 2736.26 6643.62 2733.94C6638.3 2729.98 6632.76 2726.35 6627.02 2723.05L6622.55 2720.2H6621.66L6425.32 2606.14L6423.89 2605.25C6373.08 2576.91 6315.72 2562.39 6257.54 2563.13C6170.79 2563.13 6072.98 2591.68 5969.28 2651.48C5612.29 2857.1 5324.21 3357.23 5324.21 3768.83C5324.21 3973.92 5395.61 4118.14 5511.98 4185.79H5513.05L5709.39 4299.67H5710.46L5713.68 4301.45C5718.85 4304.31 5723.85 4306.98 5729.03 4309.48C5734.2 4311.98 5741.88 4315.37 5748.48 4318.05C5755.09 4320.73 5760.26 4322.69 5766.33 4324.48C5769.47 4325.67 5772.69 4326.63 5775.97 4327.33C5779.26 4328.67 5782.66 4329.69 5786.14 4330.37L5796.67 4333.04C5799.19 4333.75 5801.76 4334.29 5804.35 4334.65L5818.27 4337.15H5821.49L5838.26 4339.29C5934.47 4349.47 6046.21 4322.33 6165.79 4253.44C6522.78 4047.64 6810.86 3547.33 6810.86 3136.08C6810.5 3127.51 6810.33 3118.23 6809.97 3108.42ZM6377.84 2817.48C6391.81 2868.65 6398.65 2921.5 6398.19 2974.55C6398.19 3337.42 6132.6 3797.21 5818.45 3978.56C5772.59 4005.86 5723.06 4026.48 5671.37 4039.78C5657.4 3988.55 5650.55 3935.63 5651.03 3882.53C5651.03 3519.66 5916.44 3059.87 6230.77 2878.52C6276.62 2851.24 6326.15 2830.68 6377.84 2817.48Z" fill="#38BB3D"/>
<path opacity="0.1" d="M5700.11 4295.2L5510.91 4185.61C5394.89 4117.78 5323.14 3973.38 5323.14 3768.66C5323.14 3585.17 5380.61 3384.19 5475.75 3199.45L5672.09 3313.5C5576.77 3498.06 5519.3 3699.22 5519.3 3882.71C5520.01 4083.34 5587.66 4225.59 5700.11 4295.2Z" fill="black"/>
<path opacity="0.4" d="M6809.97 3108.42C6809.97 3100.74 6809.97 3093.42 6808.9 3085.93C6807.83 3078.43 6808.01 3071.11 6807.11 3063.79C6806.22 3056.48 6806.22 3054.16 6805.69 3049.34C6804.44 3036.48 6802.47 3023.99 6800.51 3012.03C6799.44 3006.68 6798.55 3000.97 6797.47 2995.61C6796.4 2990.26 6795.33 2985.44 6794.26 2980.26C6791.05 2966.52 6787.84 2952.95 6783.91 2940.1C6781.77 2934.03 6779.98 2927.78 6777.84 2922.25C6777.49 2921.32 6777.19 2920.36 6776.95 2919.39C6774.63 2913.33 6772.66 2907.61 6770.34 2901.55C6767.93 2894.99 6765.19 2888.55 6762.13 2882.27C6760.19 2877.57 6757.98 2872.98 6755.53 2868.52C6754.25 2865.16 6752.64 2861.93 6750.71 2858.89C6748.93 2854.96 6746.78 2851.03 6744.64 2847.28L6743.04 2844.61C6741.25 2841.22 6739.11 2838 6737.14 2834.61C6735.18 2831.22 6734.29 2830.33 6733.04 2828.19C6723.42 2813.12 6712.68 2798.8 6700.91 2785.35C6698.77 2783.21 6696.81 2780.89 6694.84 2778.74C6692.88 2776.6 6691.45 2775.17 6689.84 2773.39L6683.24 2766.96C6677.16 2760.59 6670.66 2754.62 6663.78 2749.11C6660.67 2746.36 6657.39 2743.8 6653.97 2741.44C6650.58 2738.76 6647.19 2736.26 6643.62 2733.94C6638.3 2729.98 6632.76 2726.35 6627.02 2723.05C6509.93 2651.66 6341.43 2653.44 6165.44 2764.64C5811.85 2987.4 5521.98 3481.28 5520.19 3882C5519.3 4090.47 5594.09 4235.94 5713.5 4302.16C5718.67 4305.02 5723.67 4307.7 5728.85 4310.2C5734.02 4312.7 5741.7 4316.09 5748.3 4318.76C5754.91 4321.44 5760.08 4323.41 5766.15 4325.19C5769.29 4326.39 5772.51 4327.34 5775.79 4328.05C5779.08 4329.38 5782.48 4330.4 5785.97 4331.08L5796.5 4333.76C5799.02 4334.46 5801.58 4335 5804.17 4335.36L5818.09 4337.86H5821.31L5838.09 4340C5934.29 4350.18 6046.03 4323.05 6165.62 4254.15C6522.6 4048.35 6810.68 3548.04 6810.68 3136.8C6810.5 3127.52 6810.33 3118.23 6809.97 3108.42ZM6099.93 4141.88C6019.97 4188.11 5943.04 4212.38 5877.17 4212.38C5753.66 4212.38 5696.9 4128.14 5671.37 4039.78C5657.4 3988.55 5650.55 3935.64 5651.03 3882.53C5651.03 3519.66 5916.44 3059.87 6230.77 2878.52C6276.62 2851.24 6326.15 2830.68 6377.84 2817.48C6402.62 2811.41 6428.01 2808.23 6453.52 2808.02C6657.72 2808.02 6679.49 3038.63 6679.49 3137.87C6679.49 3500.74 6414.25 3960.53 6099.93 4141.88Z" fill="white"/>
<path opacity="0.1" d="M6679.49 3137.87C6679.49 3500.56 6414.26 3960.53 6099.93 4141.88C6019.97 4188.11 5943.04 4212.38 5877.35 4212.38C5848.64 4213.54 5820.05 4208.14 5793.73 4196.61C5767.41 4185.07 5744.07 4167.7 5725.46 4145.81C5722.24 4142.06 5719.21 4138.13 5716.18 4134.21C5713.14 4130.28 5710.29 4126.17 5707.79 4121.89C5705.77 4118.96 5703.93 4115.92 5702.25 4112.79C5701 4110.82 5699.76 4108.86 5698.68 4106.9C5697.61 4104.93 5696.19 4101.9 5694.76 4099.4C5693.33 4096.9 5692.44 4094.76 5691.37 4092.44C5690.3 4090.12 5689.05 4087.8 5687.97 4085.3L5682.62 4072.45C5680.48 4067.09 5678.51 4061.74 5676.73 4056.2C5674.94 4050.67 5672.98 4045.32 5671.55 4039.78C5723.24 4026.48 5772.77 4005.87 5818.63 3978.56C6132.77 3797.21 6398.37 3337.42 6398.37 2974.55C6398.83 2921.51 6391.99 2868.65 6378.02 2817.48C6402.8 2811.41 6428.19 2808.23 6453.7 2808.02C6463.66 2808.05 6473.61 2808.65 6483.51 2809.8L6492.79 2811.23C6660.39 2839.07 6679.49 3045.41 6679.49 3137.87Z" fill="black"/>
<path opacity="0.7" d="M6566.69 3073.97C6566.69 3436.84 6301.45 3896.63 5987.13 4077.98C5907.16 4124.21 5830.23 4149.38 5764.37 4149.38C5751.27 4149.43 5738.19 4148.35 5725.28 4146.16C5722.07 4142.42 5719.03 4138.49 5716 4134.56C5712.96 4130.64 5710.11 4126.53 5707.61 4122.25C5705.6 4119.32 5703.75 4116.28 5702.08 4113.14C5700.83 4111.18 5699.58 4109.22 5698.51 4107.25C5697.43 4105.29 5696.01 4102.25 5694.58 4099.76C5693.15 4097.26 5692.26 4095.11 5691.19 4092.79C5690.12 4090.47 5688.87 4088.15 5687.8 4085.66L5682.44 4072.8C5680.3 4067.45 5678.34 4062.09 5676.55 4056.56C5674.77 4051.03 5672.8 4045.67 5671.38 4040.14C5723.06 4026.84 5772.59 4006.22 5818.45 3978.92C6132.6 3797.57 6398.19 3337.78 6398.19 2974.91C6398.66 2921.86 6391.81 2869.01 6377.84 2817.83C6402.62 2811.77 6428.02 2808.59 6453.52 2808.37C6463.48 2808.41 6473.44 2809 6483.33 2810.16L6492.61 2811.59C6557.23 2887.27 6566.69 3009.18 6566.69 3073.97Z" fill="white"/>
</svg>
