<svg width="3687" height="3687" viewBox="0 0 3687 3687" fill="none" xmlns="http://www.w3.org/2000/svg">
    <g clip-path="url(#clip0_57_6)">
        <path
            d="M1843.58 3687C2861.71 3687 3687.08 2861.64 3687.08 1843.5C3687.08 825.363 2861.71 0 1843.58 0C825.439 0 0.0756836 825.363 0.0756836 1843.5C0.0756836 2861.64 825.439 3687 1843.58 3687Z"
            fill="#101F2B" />
        <path
            d="M1613.06 1152.19V1406.74L1536.25 1329.93C1484.23 1348.66 1434.09 1372.22 1386.47 1400.29C1267.75 1471.55 1167.41 1569.6 1093.48 1686.58C1019.55 1803.57 974.102 1936.24 960.771 2073.94L1037.58 2150.75H844.938C802.383 2150.75 768.125 2185.01 768.125 2227.56V2304.38C768.125 2325.65 776.728 2344.78 790.631 2358.68L2098.98 3667.19C2406.94 3623.9 2698.94 3503.42 2947.82 3316.94C3196.69 3130.46 3394.35 2884.05 3522.39 2600.65L2539.34 1617.59C2493.19 1557.84 2439.58 1504.23 2379.8 1458.06L2073.94 1152.19H1879.22V1229L1802.41 1152.19H1613.06Z"
            fill="#0E1A24" />
        <path
            d="M1613.06 1152.19V1613.06H1536.25V1329.93C1484.29 1348.67 1434.19 1372.23 1386.62 1400.29C1267.89 1471.54 1167.53 1569.59 1093.59 1686.57C1019.65 1803.56 974.188 1936.23 960.848 2073.94H2721.85C2724.66 2099.46 2726.35 2125.08 2726.92 2150.75C2725.23 1995.92 2682.92 1844.24 2604.21 1710.84C2525.49 1577.45 2413.13 1467 2278.34 1390.54C2237.44 1367.8 2194.8 1348.33 2150.83 1332.31V1613.06H2074.01V1152.19H1879.29V1382.62H1802.48V1152.19H1613.06ZM2073.94 1306.58C2094.29 1312.29 2114.42 1318.72 2134.31 1325.86C2114.45 1318.69 2094.34 1312.24 2074.01 1306.51L2073.94 1306.58ZM2726.92 2150.75H844.938C802.46 2150.75 768.125 2185.01 768.125 2227.56V2304.38C768.125 2346.93 802.46 2381.19 844.938 2381.19H2842.06C2884.69 2381.19 2918.88 2346.93 2918.88 2304.38V2227.56C2918.88 2185.01 2884.69 2150.75 2842.06 2150.75H2726.92Z"
            fill="#38BB3D" />
    </g>
    <defs>
        <clipPath id="clip0_57_6">
            <rect width="3687" height="3687" fill="white" />
        </clipPath>
    </defs>
</svg>